<svg width="117" height="116" viewBox="0 0 117 116" xmlns="http://www.w3.org/2000/svg">
  <g clip-path="url(#clip0_3_68)">
    <path d="M58.5 33.8188C58.0022 33.8188 57.5043 33.7173 57.0403 33.5143L26.832 20.2227C25.5173 19.6378 24.6667 18.3425 24.6667 16.9022C24.6667 15.4618 25.5173 14.1665 26.832 13.5817L57.0403 0.290004C57.9683 -0.115996 59.0317 -0.115996 59.9597 0.290004L90.168 13.5817C91.4827 14.1665 92.3333 15.4618 92.3333 16.9022C92.3333 18.3425 91.4827 19.6378 90.168 20.2227L59.9597 33.5143C59.4957 33.7173 58.9978 33.8188 58.5 33.8188Z" fill="currentColor"/>
    <path d="M62.879 40.1505C61.4725 40.7643 60.008 41.0688 58.5 41.0688C56.992 41.0688 55.5275 40.7643 54.1403 40.1602L34.3333 31.4408V34.7662C34.3333 37.7145 35.8752 40.4888 38.3547 41.992C45.3195 46.2212 51.9122 48.3333 58.5 48.3333C65.0878 48.3333 71.6805 46.2163 78.6453 41.992C81.1248 40.4888 82.6667 37.7193 82.6667 34.7662V31.4408L62.879 40.1505Z" fill="currentColor"/>
    <path d="M108.042 19.3333H101.758C100.985 23.5867 98.1817 27.2117 94.17 29H106.833V82.1667H10.1667V29H22.83C18.8183 27.2117 16.015 23.5867 15.2417 19.3333H8.95833C4.31833 19.3333 0.5 23.1517 0.5 27.7917V93.0417C0.5 97.6817 4.31833 101.5 8.95833 101.5H45.9817C45.4017 103.917 43.9033 107.832 39.8917 111.892C39.1667 112.568 38.9733 113.583 39.36 114.502C39.7467 115.42 40.6167 116 41.5833 116H75.4167C76.3833 116 77.2533 115.42 77.64 114.502C78.0267 113.583 77.8333 112.568 77.1083 111.892C73.0967 107.88 71.55 103.917 70.97 101.5H108.042C112.682 101.5 116.5 97.6817 116.5 93.0417V27.7917C116.5 23.1517 112.682 19.3333 108.042 19.3333Z" fill="currentColor"/>
  </g>
  <defs>
    <clipPath id="clip0_3_68">
      <rect width="116" height="116" fill="currentColor" transform="translate(0.5)"/>
    </clipPath>
  </defs>
</svg>
