<svg xmlns="http://www.w3.org/2000/svg" viewBox="0 0 750 500"><g id="freepik--Table--inject-151"><path d="M716.69,378.23c0,.15-151.65.26-338.67.26s-338.71-.11-338.71-.26S190.93,378,378,378,716.69,378.09,716.69,378.23Z" style="fill:#263238"></path></g><g id="freepik--books-2--inject-151"><path d="M585.11,347h-44.3a12.31,12.31,0,0,1-12.3-12.31h0a12.3,12.3,0,0,1,12.3-12.3h44.3Z" style="fill:#455a64"></path><path d="M671.34,326.46H572.85v-4.08h98.49a2,2,0,0,1,2,2h0A2,2,0,0,1,671.34,326.46Z" style="fill:#455a64"></path><path d="M671.34,347H572.85V342.9h98.49a2.05,2.05,0,0,1,2,2.05h0A2,2,0,0,1,671.34,347Z" style="fill:#455a64"></path><path d="M670.38,342.9H584.07a8.22,8.22,0,0,1-8.22-8.22h0a8.22,8.22,0,0,1,8.22-8.22h86.31A20.37,20.37,0,0,0,670.38,342.9Z" style="fill:#f5f5f5"></path><g style="opacity:0.30000000000000004"><path d="M575.85,347h-35a12.35,12.35,0,0,1-12.34-12.34h0a12.27,12.27,0,0,1,12.27-12.27h36C567.88,327.78,568.54,340.7,575.85,347Z"></path></g><path d="M659.89,335.45c0,.08-17.71.14-39.56.14s-39.57-.06-39.57-.14,17.71-.15,39.57-.15S659.89,335.37,659.89,335.45Z" style="fill:#263238"></path><path d="M668,339.1c0,.08-17.72.15-39.57.15s-39.56-.07-39.56-.15,17.71-.15,39.56-.15S668,339,668,339.1Z" style="fill:#263238"></path><path d="M665.64,330.27c0,.08-17.72.14-39.57.14s-39.57-.06-39.57-.14,17.72-.15,39.57-.15S665.64,330.18,665.64,330.27Z" style="fill:#263238"></path><path d="M571.52,345.26c0,.09-8.29.15-18.52.15s-18.52-.06-18.52-.15,8.29-.14,18.52-.14S571.52,345.18,571.52,345.26Z" style="fill:#263238"></path><path d="M571.52,324.42c0,.08-8.29.15-18.52.15s-18.52-.07-18.52-.15,8.29-.15,18.52-.15S571.52,324.34,571.52,324.42Z" style="fill:#263238"></path><path d="M582.46,378.23H527.52a15.85,15.85,0,0,1-15.85-15.84h0a15.85,15.85,0,0,1,15.85-15.85h54.94a2.11,2.11,0,0,1,2.11,2.11v27.47A2.11,2.11,0,0,1,582.46,378.23Z" style="fill:#407BFF"></path><path d="M695.61,351.8H568.78v-5.26H695.61a2.63,2.63,0,0,1,2.63,2.63h0A2.63,2.63,0,0,1,695.61,351.8Z" style="fill:#407BFF"></path><path d="M695.61,378.23H568.78V373H695.61a2.63,2.63,0,0,1,2.63,2.63h0A2.63,2.63,0,0,1,695.61,378.23Z" style="fill:#407BFF"></path><path d="M694.38,373H583.23a10.59,10.59,0,0,1-10.59-10.58h0a10.59,10.59,0,0,1,10.59-10.59H694.38A26.18,26.18,0,0,0,694.38,373Z" style="fill:#f5f5f5"></path><g style="opacity:0.4"><path d="M572.64,378.23H527.35a15.68,15.68,0,0,1-15.68-15.67h0a16,16,0,0,1,16-16h46.16C562.37,353.49,563.23,370.14,572.64,378.23Z"></path></g><path d="M680.87,363.37c0,.08-22.81.15-51,.15s-50.95-.07-50.95-.15,22.81-.15,50.95-.15S680.87,363.29,680.87,363.37Z" style="fill:#263238"></path><path d="M691.36,368.07c0,.09-22.81.15-51,.15s-51-.06-51-.15,22.81-.14,51-.14S691.36,368,691.36,368.07Z" style="fill:#263238"></path><path d="M688.27,359c0,.08-22.82.15-50.95.15s-51-.07-51-.15,22.81-.14,51-.14S688.27,358.92,688.27,359Z" style="fill:#263238"></path><path d="M567.06,376c0,.08-10.68.15-23.85.15s-23.85-.07-23.85-.15,10.67-.14,23.85-.14S567.06,375.93,567.06,376Z" style="fill:#263238"></path><path d="M567.06,349.17c0,.08-10.68.15-23.85.15s-23.85-.07-23.85-.15S530,349,543.21,349,567.06,349.09,567.06,349.17Z" style="fill:#263238"></path><polygon points="612.44 330.37 612.44 340.23 615.86 338.04 619.67 340.23 619.67 330.37 612.44 330.37" style="fill:#407BFF"></polygon><polygon points="541.54 321.24 541.28 294.71 554.21 294.71 554.65 321.24 541.54 321.24" style="fill:#f5f5f5"></polygon><path d="M553.45,299.43a78.64,78.64,0,0,1-12,0,82.2,82.2,0,0,1,12,0Z" style="fill:#e0e0e0"></path><path d="M553.45,303.53a82.2,82.2,0,0,1-12,0,78.64,78.64,0,0,1,12,0Z" style="fill:#e0e0e0"></path><path d="M553.45,307.62a78.64,78.64,0,0,1-12,0,78.64,78.64,0,0,1,12,0Z" style="fill:#e0e0e0"></path><path d="M553.45,311.71a78.64,78.64,0,0,1-12,0,82.2,82.2,0,0,1,12,0Z" style="fill:#e0e0e0"></path><path d="M553.45,315.81a82.2,82.2,0,0,1-12,0,78.64,78.64,0,0,1,12,0Z" style="fill:#e0e0e0"></path><path d="M540.16,293.84H683.49c1.77,8.78,1.52,18.44,0,28.66H540.77v-1.95h8.72a4.37,4.37,0,0,0,4.12-4.59V300.09a4.37,4.37,0,0,0-4.12-4.59h-9.33Z" style="fill:#407BFF"></path><path d="M678.54,323.05c-.11,0-.21-6.58-.21-14.7s.1-14.71.21-14.71.2,6.58.2,14.71S678.65,323.05,678.54,323.05Z" style="fill:#263238"></path><path d="M561.25,323.05c-.11,0-.2-6.58-.2-14.7s.09-14.71.2-14.71.2,6.58.2,14.71S561.36,323.05,561.25,323.05Z" style="fill:#263238"></path><path d="M681.05,323.05c-.11,0-.2-6.58-.2-14.7s.09-14.71.2-14.71.21,6.58.21,14.71S681.16,323.05,681.05,323.05Z" style="fill:#263238"></path><path d="M558.9,323.05c-.11,0-.2-6.58-.2-14.7s.09-14.71.2-14.71.2,6.58.2,14.71S559,323.05,558.9,323.05Z" style="fill:#263238"></path><rect x="582.66" y="303.75" width="81.32" height="7.73" rx="1.95" style="fill:#fff"></rect><path d="M667.58,269.71v22.16H629.17V269.71Z" style="fill:#ebebeb"></path><path d="M543.53,281c0,.2,0,.39,0,.59.31,6.7,5.41,11.89,11.43,11.89H669.37v-1.6H642.21c-5.48,0-9.92-5-9.92-11.08h0c0-6.12,4.44-11.08,9.92-11.08h27.16v-2.36l-114.43.43C548.48,267.81,543.29,273.79,543.53,281Z" style="fill:#455a64"></path><path d="M667.58,281.08c0,.13-7.9.23-17.64.23s-17.64-.1-17.64-.23,7.9-.22,17.64-.22S667.58,281,667.58,281.08Z" style="fill:#e0e0e0"></path><path d="M667,286.08c0,.12-7.47.22-16.69.22s-16.69-.1-16.69-.22,7.47-.23,16.69-.23S667,286,667,286.08Z" style="fill:#e0e0e0"></path><path d="M667.58,290.64c0,.13-6.72.23-15,.23s-15-.1-15-.23,6.72-.22,15-.22S667.58,290.52,667.58,290.64Z" style="fill:#e0e0e0"></path><path d="M667.58,276.6c0,.12-7.74.22-17.28.22s-17.27-.1-17.27-.22,7.73-.23,17.27-.23S667.58,276.47,667.58,276.6Z" style="fill:#e0e0e0"></path><path d="M667,272.11c0,.13-6.88.23-15.37.23s-15.38-.1-15.38-.23,6.88-.23,15.38-.23S667,272,667,272.11Z" style="fill:#e0e0e0"></path><rect x="555.14" y="278.84" width="65.11" height="4.03" rx="1.01" style="fill:#fff"></rect><path d="M579.51,293.84c.54.25,72.81,8.64,72.81,8.64l14.4-9Z" style="fill:#fff"></path><path d="M579.51,293.84l25.33-.21,61.88-.42h.92l-.78.49-1.31.82-13.1,8.19-.07,0h-.09l-51.93-6.17-15.31-1.91-4.12-.56a10.29,10.29,0,0,1-1.08-.19l-.34-.06,72.84,8.38-.17,0,13.09-8.19,1.31-.82.14.48-61.57.1Z" style="fill:#263238"></path><polygon points="596.2 346.54 628.47 363.22 657.29 346.03 596.2 346.54" style="fill:#fff"></polygon><path d="M596.2,346.54l17.59-.24c11-.16,26.34-.39,43.5-.53h1l-.82.49-3.77,2.25-25.06,14.91-.11.07-.12-.06L605,351.17l-8.81-4.63L628.58,363h-.23l25-15,3.78-2.25.13.48c-17,.15-32.18.18-43.2.2Z" style="fill:#263238"></path><path d="M99.51,341H55.21a12.3,12.3,0,0,1-12.3-12.3h0a12.31,12.31,0,0,1,12.3-12.31h44.3Z" style="fill:#455a64"></path><path d="M185.73,320.49H87.25V316.4h98.48a2.05,2.05,0,0,1,2.05,2h0A2.05,2.05,0,0,1,185.73,320.49Z" style="fill:#455a64"></path><path d="M185.73,341H87.25v-4.08h98.48a2,2,0,0,1,2.05,2h0A2,2,0,0,1,185.73,341Z" style="fill:#455a64"></path><path d="M184.78,336.93H98.47a8.22,8.22,0,0,1-8.22-8.22h0a8.22,8.22,0,0,1,8.22-8.22h86.31A20.29,20.29,0,0,0,184.78,336.93Z" style="fill:#f5f5f5"></path><g style="opacity:0.30000000000000004"><path d="M90.25,341h-35a12.33,12.33,0,0,1-12.34-12.34h0A12.26,12.26,0,0,1,55.17,316.4h36C82.28,321.8,82.94,334.73,90.25,341Z"></path></g><path d="M174.29,329.47c0,.08-17.71.15-39.56.15s-39.57-.07-39.57-.15,17.71-.15,39.57-.15S174.29,329.39,174.29,329.47Z" style="fill:#263238"></path><path d="M182.44,333.12c0,.09-17.72.15-39.57.15s-39.57-.06-39.57-.15S121,333,142.87,333,182.44,333,182.44,333.12Z" style="fill:#263238"></path><path d="M180,324.29c0,.08-17.71.15-39.56.15s-39.57-.07-39.57-.15,17.71-.15,39.57-.15S180,324.21,180,324.29Z" style="fill:#263238"></path><path d="M85.92,339.29c0,.08-8.3.14-18.52.14s-18.52-.06-18.52-.14,8.29-.15,18.52-.15S85.92,339.21,85.92,339.29Z" style="fill:#263238"></path><path d="M85.92,318.44c0,.09-8.3.15-18.52.15s-18.52-.06-18.52-.15,8.29-.14,18.52-.14S85.92,318.36,85.92,318.44Z" style="fill:#263238"></path><path d="M96.86,372.26H41.92a15.85,15.85,0,0,1-15.85-15.85h0a15.85,15.85,0,0,1,15.85-15.85H96.86A2.12,2.12,0,0,1,99,342.67v27.48A2.12,2.12,0,0,1,96.86,372.26Z" style="fill:#407BFF"></path><path d="M210,345.82H83.18v-5.26H210a2.63,2.63,0,0,1,2.63,2.63h0A2.63,2.63,0,0,1,210,345.82Z" style="fill:#407BFF"></path><path d="M210,372.26H83.18V367H210a2.63,2.63,0,0,1,2.63,2.63h0A2.63,2.63,0,0,1,210,372.26Z" style="fill:#407BFF"></path><path d="M208.78,367H97.62A10.59,10.59,0,0,1,87,356.41h0a10.59,10.59,0,0,1,10.58-10.59H208.78A26.21,26.21,0,0,0,208.78,367Z" style="fill:#f5f5f5"></path><g style="opacity:0.4"><path d="M87,372.26H41.75a15.68,15.68,0,0,1-15.68-15.68h0a16,16,0,0,1,16-16H88.24C76.77,347.51,77.63,364.16,87,372.26Z"></path></g><path d="M195.27,357.39c0,.08-22.81.15-51,.15s-51-.07-51-.15,22.81-.14,51-.14S195.27,357.31,195.27,357.39Z" style="fill:#263238"></path><path d="M205.76,362.1c0,.08-22.82.15-50.95.15s-51-.07-51-.15,22.81-.15,51-.15S205.76,362,205.76,362.1Z" style="fill:#263238"></path><path d="M202.67,353c0,.08-22.82.14-50.95.14s-51-.06-51-.14,22.81-.15,51-.15S202.67,352.94,202.67,353Z" style="fill:#263238"></path><path d="M81.46,370c0,.08-10.68.14-23.85.14s-23.85-.06-23.85-.14,10.67-.15,23.85-.15S81.46,370,81.46,370Z" style="fill:#263238"></path><path d="M81.46,343.19c0,.08-10.68.15-23.85.15s-23.85-.07-23.85-.15,10.67-.14,23.85-.14S81.46,343.11,81.46,343.19Z" style="fill:#263238"></path><polygon points="126.84 324.39 126.84 334.25 130.25 332.06 134.06 334.25 134.06 324.39 126.84 324.39" style="fill:#407BFF"></polygon><path d="M99,319.37H49.23c-7.93,0-14.35-6.7-14.35-15h0c0-8.26,6.42-15,14.35-15H99a2,2,0,0,1,1.91,2v25.95A2,2,0,0,1,99,319.37Z" style="fill:#407BFF"></path><path d="M201.45,294.41H86.59v-5H201.45a2.43,2.43,0,0,1,2.38,2.48h0A2.44,2.44,0,0,1,201.45,294.41Z" style="fill:#407BFF"></path><path d="M201.45,319.37H86.59v-5H201.45a2.44,2.44,0,0,1,2.38,2.49h0A2.43,2.43,0,0,1,201.45,319.37Z" style="fill:#407BFF"></path><path d="M200.33,314.4H99.68a9.8,9.8,0,0,1-9.59-10h0a9.79,9.79,0,0,1,9.59-10H200.33A25.68,25.68,0,0,0,200.33,314.4Z" style="fill:#f5f5f5"></path><g style="opacity:0.4"><path d="M90.09,319.37h-41c-7.85,0-14.2-6.63-14.2-14.81h0c0-8.35,6.49-15.12,14.5-15.12h41.8C80.79,296,81.57,311.73,90.09,319.37Z"></path></g><path d="M188.1,305.33c0,.08-20.66.14-46.14.14s-46.14-.06-46.14-.14,20.65-.14,46.14-.14S188.1,305.25,188.1,305.33Z" style="fill:#263238"></path><path d="M197.6,309.78c0,.07-20.66.13-46.14.13s-46.15-.06-46.15-.13,20.66-.14,46.15-.14S197.6,309.7,197.6,309.78Z" style="fill:#263238"></path><path d="M194.8,301.21c0,.07-20.66.14-46.14.14s-46.15-.07-46.15-.14,20.66-.14,46.15-.14S194.8,301.13,194.8,301.21Z" style="fill:#263238"></path><path d="M85,317.27c0,.08-9.67.14-21.6.14s-21.6-.06-21.6-.14,9.67-.14,21.6-.14S85,317.2,85,317.27Z" style="fill:#263238"></path><path d="M85,291.92c0,.08-9.67.14-21.6.14s-21.6-.06-21.6-.14,9.67-.14,21.6-.14S85,291.84,85,291.92Z" style="fill:#263238"></path><rect x="34.88" y="282.43" width="177.76" height="7.01" style="fill:#fff"></rect><path d="M212.66,289.46H34.85V282.4H212.66Zm-177.76,0H212.61v-7H34.9Z" style="fill:#263238"></path><path d="M113,282.44c1.17.7,40.61,19.39,40.61,19.39l39.34-20.1Z" style="fill:#e0e0e0"></path><path d="M113,282.44l23.1-.31,56.85-.66H194l-1,.5-4.11,2.1L153.7,302l-.11,0-.1,0L124.11,288l-8.24-4c-.93-.47-1.65-.84-2.17-1.09l-.55-.32-.17-.1,40.71,19.19h-.2l35.22-18,4.1-2.1.12.49-56.55.35Z" style="fill:#263238"></path><rect x="34.88" y="282.43" width="55.21" height="7.01" style="fill:#e0e0e0"></rect><path d="M90.12,289.46H34.85V282.4H90.12Zm-55.22,0H90.07v-7H34.9Z" style="fill:#263238"></path></g><g id="freepik--book-1--inject-151"><path d="M527.14,432.56,408.83,432s.79,2.14-4.12,2.14l-39.11-.26s-2.89.26-2.94-1.88c0,0-91.72,1.45-114.37,2-1.7,0-4.7-.92-3.29-2.93l7.91-8.86,130.86-11.88,92.82,9.12,31.83-10.75h1.06a2.74,2.74,0,0,1,2.19,1.05L528,431.05A1,1,0,0,1,527.14,432.56Z" style="fill:#455a64"></path><g style="opacity:0.2"><polygon points="477.12 430.03 266.36 431.56 315.93 417.2 377.72 418.82 439.54 416.52 477.12 430.03"></polygon></g><path d="M384.94,426.14l-1.17-24.25s-.24-13.33,16.94-17.78,38.6,1.21,58.6,2.22,19.77-.4,19.77-.4l16.23,23.44-63.77,8.69s-37,2-37.65,2.22S384.94,426.14,384.94,426.14Z" style="fill:#fafafa"></path><path d="M385.15,427l-1.38-22.78s.23-13.34-16.95-17.79-38.59,1.22-58.59,2.23c-14,.7-18.34.58-19.68.45a1.08,1.08,0,0,0-1,.42l-15.35,22.16L336,420.38s36.94,2,37.65,2.23S385.15,427,385.15,427Z" style="fill:#fafafa"></path><path d="M523.08,430.79l-27.77-21.42s-57.51-9.09-77-5.86-30.64,9.5-33.33,22.83l18.74,4.45a61.12,61.12,0,0,1,24.94-5.86c14.12-.2,49.42,5.86,49.42,5.86Z" style="fill:#e0e0e0"></path><path d="M365.07,430.79l19.77-4.65s-1.41-21.19-33.53-24.73c0,0-9.07-2.75-41.31,2.91s-35.53,5.45-35.53,5.45L247.64,432s16,1.22,29.18-1.21,36.24-10.71,61.19-8.28S365.07,430.79,365.07,430.79Z" style="fill:#e0e0e0"></path><polygon points="495.31 409.37 479.6 386.68 507.48 407.49 525.09 430.79 523.08 430.79 495.31 409.37" style="fill:#e0e0e0"></polygon><path d="M274.57,409.77l12.81-20.12S261.87,410.39,261.64,411s-13.89,21-13.89,21Z" style="fill:#e0e0e0"></path><polyline points="404.71 430.79 365.18 430.79 384.94 426.14 385.98 426.35" style="fill:#263238"></polyline><path d="M384.94,426.14c.13,0,0-5.29-.29-11.81s-.65-11.81-.78-11.8,0,5.29.3,11.81S384.81,426.15,384.94,426.14Z" style="fill:#263238"></path><path d="M467.61,405.62a1.87,1.87,0,0,0,.54.12l1.57.25,5.83.86,19.73,2.74-.11,0,3.79,2.73,18.42,13.17,5.61,3.95,1.54,1.06a4.66,4.66,0,0,0,.56.34,4.77,4.77,0,0,0-.5-.41l-1.49-1.13-5.52-4.06-18.33-13.27-3.79-2.72,0,0h-.06l-19.75-2.59-5.86-.73-1.58-.17A3.24,3.24,0,0,0,467.61,405.62Z" style="fill:#263238"></path><path d="M387.54,413.42l.18-.18.48-.53c.42-.48,1.05-1.16,1.93-2a34.21,34.21,0,0,1,8.52-5.78,51.2,51.2,0,0,1,14.86-4.45,130.64,130.64,0,0,1,19.16-1.19,235.64,235.64,0,0,1,34.82,2.47c4.42.64,8,1.28,10.44,1.74l2.82.53.74.14.25,0a.75.75,0,0,0-.24-.08l-.73-.17c-.64-.15-1.58-.37-2.81-.62-2.44-.51-6-1.2-10.41-1.88a222.57,222.57,0,0,0-34.89-2.6,126.32,126.32,0,0,0-19.23,1.23,51,51,0,0,0-14.94,4.57A33.25,33.25,0,0,0,390,410.6a26.32,26.32,0,0,0-1.88,2l-.44.57C387.58,413.35,387.53,413.41,387.54,413.42Z" style="fill:#263238"></path><path d="M387.54,410.46l.17-.16.44-.5c.19-.22.44-.49.74-.8s.64-.67,1.05-1.05a33.74,33.74,0,0,1,7.78-5.5,48.73,48.73,0,0,1,13.62-4.54,105.55,105.55,0,0,1,17.71-1.53A237.84,237.84,0,0,1,461.39,398c4.11.49,7.43,1,9.72,1.33l2.63.42.69.1.24,0-.23-.07-.68-.14c-.6-.12-1.48-.3-2.62-.49-2.28-.41-5.59-.95-9.71-1.48A223.47,223.47,0,0,0,429,395.94a103.48,103.48,0,0,0-17.79,1.57,47.86,47.86,0,0,0-13.69,4.67,32.45,32.45,0,0,0-7.76,5.65c-.4.4-.74.76-1,1.09a9.77,9.77,0,0,0-.7.82l-.41.53C387.58,410.39,387.53,410.45,387.54,410.46Z" style="fill:#263238"></path><path d="M387.54,407.5l.16-.16.45-.49c.18-.23.43-.49.72-.79s.64-.67,1-1.05a33.78,33.78,0,0,1,7.71-5.46A48.12,48.12,0,0,1,411.09,395a104.2,104.2,0,0,1,17.54-1.56,235.19,235.19,0,0,1,32,1.5c4.08.47,7.37.94,9.64,1.28l2.61.4.68.1a1.1,1.1,0,0,0,.24,0l-.23-.06-.67-.14c-.6-.11-1.47-.29-2.6-.48-2.26-.4-5.55-.92-9.63-1.43A222.66,222.66,0,0,0,428.62,393,101.22,101.22,0,0,0,411,394.6a47.25,47.25,0,0,0-13.55,4.68,32.56,32.56,0,0,0-7.67,5.61c-.4.39-.73.76-1,1.08s-.52.59-.7.82-.3.38-.4.52A.89.89,0,0,0,387.54,407.5Z" style="fill:#263238"></path><path d="M387.54,404.54l.16-.16.43-.48c.37-.43.95-1,1.72-1.8a38.58,38.58,0,0,1,7.35-5.6,40.77,40.77,0,0,1,12.95-5c5.18-1.08,11.05-1.13,17.18-1.06,12.28.08,23.39.57,31.38,1.35,4,.39,7.23.78,9.46,1.09l2.56.36.67.09h.23l-.22-.06-.67-.13c-.58-.1-1.43-.27-2.54-.44-2.22-.36-5.45-.81-9.45-1.23-8-.87-19.13-1.41-31.42-1.48-6.13-.07-12,0-17.28,1.1a40.42,40.42,0,0,0-13,5.1,36.75,36.75,0,0,0-7.3,5.74,23.25,23.25,0,0,0-1.66,1.87l-.4.51A.86.86,0,0,0,387.54,404.54Z" style="fill:#263238"></path><path d="M387.54,401.58l.16-.16.42-.48c.37-.43.92-1.06,1.66-1.83a36.78,36.78,0,0,1,7-5.86,30.72,30.72,0,0,1,5.71-2.87,39.27,39.27,0,0,1,7.17-1.88,88.57,88.57,0,0,1,17.07-1c12.18.34,23.17,1.44,31.14,2,4,.31,7.21.52,9.44.64l2.57.12.67,0a.82.82,0,0,0,.23,0l-.23,0-.66-.07-2.57-.2-9.42-.78c-8-.66-18.94-1.8-31.16-2.14a86.38,86.38,0,0,0-17.16,1,39.41,39.41,0,0,0-7.24,1.94,31.5,31.5,0,0,0-5.75,2.95,35.47,35.47,0,0,0-7,6c-.72.8-1.25,1.45-1.59,1.9l-.39.51C387.57,401.51,387.53,401.58,387.54,401.58Z" style="fill:#263238"></path><path d="M381.83,412.61a1.17,1.17,0,0,0-.14-.2l-.46-.56a23.67,23.67,0,0,0-1.92-2,33.38,33.38,0,0,0-8.6-5.79,50.82,50.82,0,0,0-15-4.32,128.52,128.52,0,0,0-19.25-.9A224.34,224.34,0,0,0,301.6,402c-4.4.76-7.94,1.51-10.38,2.06-1.22.28-2.15.51-2.79.67l-.73.19-.24.07a.86.86,0,0,0,.26,0l.73-.14,2.81-.59c2.45-.5,6-1.2,10.4-1.92a235.34,235.34,0,0,1,34.77-3.06,128.94,128.94,0,0,1,19.18.86,51,51,0,0,1,14.94,4.19,34.44,34.44,0,0,1,8.63,5.63c.9.81,1.55,1.49,2,2l.49.53Z" style="fill:#263238"></path><path d="M381.77,409.65s0-.07-.13-.19l-.42-.52a10.62,10.62,0,0,0-.72-.81c-.29-.33-.64-.68-1-1.07a32.84,32.84,0,0,0-7.87-5.52,48.31,48.31,0,0,0-13.78-4.44A106.24,106.24,0,0,0,340,395.84a223.77,223.77,0,0,0-32.35,2.28c-4.1.6-7.41,1.19-9.68,1.64-1.14.22-2,.42-2.61.54l-.67.16a1.23,1.23,0,0,0-.23.06l.24,0,.68-.11,2.63-.46c2.28-.39,5.59-.94,9.69-1.5a236.58,236.58,0,0,1,32.3-2.14,106.34,106.34,0,0,1,17.74,1.22,48.05,48.05,0,0,1,13.7,4.31,33.65,33.65,0,0,1,7.89,5.36c.42.38.78.72,1.07,1s.56.57.76.79l.45.49Z" style="fill:#263238"></path><path d="M381.71,406.69s0-.07-.13-.19l-.41-.51a10.62,10.62,0,0,0-.72-.81c-.28-.32-.62-.67-1-1.06a32.46,32.46,0,0,0-7.78-5.48A47.62,47.62,0,0,0,358,394.19a102.07,102.07,0,0,0-17.65-1.3,221.77,221.77,0,0,0-32.05,2.17c-4.07.58-7.34,1.16-9.6,1.6-1.12.21-2,.4-2.59.52l-.67.15-.22.07a.8.8,0,0,0,.23,0l.68-.11,2.61-.45c2.26-.38,5.54-.91,9.61-1.45a236,236,0,0,1,32-2,103.89,103.89,0,0,1,17.56,1.26,48.29,48.29,0,0,1,13.56,4.32,33.88,33.88,0,0,1,7.81,5.33c.41.38.76.72,1.06,1s.55.56.74.78l.46.48Z" style="fill:#263238"></path><path d="M381.65,401.58a14.39,14.39,0,0,0-2.27-2.42,27.57,27.57,0,0,0-7.95-4.69c-1.83-.75-3.88-1.44-6.11-2.11a60.69,60.69,0,0,0-7.23-1.78c-5.2-.9-11-.83-17.07-.65-12.14.36-23,1.76-30.91,2.63l-9.33,1.05-2.54.28-.66.08-.22,0h.23l.66,0,2.55-.2c2.21-.19,5.41-.5,9.35-.91,7.89-.79,18.78-2.14,30.88-2.5,6.05-.17,11.84-.26,17,.62a59.54,59.54,0,0,1,7.18,1.72c2.23.65,4.27,1.32,6.09,2.05a28.59,28.59,0,0,1,8,4.52,13.58,13.58,0,0,1,1.06,1,10.24,10.24,0,0,1,.74.74l.44.46Z" style="fill:#263238"></path><path d="M342.14,409.3v14.39l-5.1-4.32-5,4.09-.29-14S340,409,342.14,409.3Z" style="fill:#407BFF"></path><path d="M284.45,417.65a1.27,1.27,0,0,0,.26,0l.75-.16,2.89-.65c2.5-.56,6.14-1.34,10.66-2.17s9.93-1.71,15.95-2.63l9.44-1.46a78.7,78.7,0,0,1,10.17-1,99.16,99.16,0,0,1,10.24.14,58.47,58.47,0,0,1,9.41,1.31,40.16,40.16,0,0,1,14.42,6.49,45.33,45.33,0,0,1,4.66,3.82c1.3,1.2,2.37,2.28,3.23,3.18l2,2.08.51.54.19.18a1.2,1.2,0,0,0-.15-.2l-.48-.57c-.42-.51-1.05-1.23-1.89-2.15s-1.89-2-3.18-3.24a46.41,46.41,0,0,0-4.64-3.89,40.1,40.1,0,0,0-14.52-6.64,58.64,58.64,0,0,0-9.49-1.34,94.73,94.73,0,0,0-10.29-.15,76,76,0,0,0-10.23,1l-9.43,1.47c-6,1-11.43,1.86-15.94,2.74s-8.15,1.69-10.65,2.3c-1.25.3-2.21.56-2.86.73l-.75.2C284.53,417.61,284.44,417.64,284.45,417.65Z" style="fill:#263238"></path><path d="M391.69,427.49a1.63,1.63,0,0,0,.23-.21l.63-.65c.28-.28.61-.64,1-1.05l1.47-1.36a46.13,46.13,0,0,1,10.8-7,62.88,62.88,0,0,1,18.63-5.29,99.37,99.37,0,0,1,23.91.16c8.45,1,16.4,2.55,23.64,3.95s13.77,2.6,19.3,3.35a131.51,131.51,0,0,0,13.18,1.16c1.57,0,2.78,0,3.6,0h.94l.32,0a1.34,1.34,0,0,0-.32,0l-.94,0c-.82,0-2-.06-3.59-.12-3.12-.15-7.62-.52-13.14-1.3s-12-2-19.27-3.44-15.18-3-23.66-4a98.26,98.26,0,0,0-24-.13,62.72,62.72,0,0,0-18.72,5.42,45,45,0,0,0-10.78,7.17l-1.44,1.39c-.41.42-.73.79-1,1.08l-.6.68A1.63,1.63,0,0,0,391.69,427.49Z" style="fill:#263238"></path><path d="M391.69,430.48a1.63,1.63,0,0,0,.23-.21l.63-.65c.28-.28.61-.65,1-1.05l1.47-1.36a46.13,46.13,0,0,1,10.8-7,63.17,63.17,0,0,1,18.63-5.3,99.37,99.37,0,0,1,23.91.16c8.45,1,16.4,2.56,23.64,3.95s13.77,2.61,19.3,3.36a131.51,131.51,0,0,0,13.18,1.16c1.57,0,2.78.05,3.6,0l.94,0a1.14,1.14,0,0,0,.32,0l-.32,0-.94,0c-.82,0-2-.05-3.59-.12-3.12-.14-7.62-.51-13.14-1.29s-12-2-19.27-3.44-15.18-3-23.66-4a98.73,98.73,0,0,0-24-.12,62.43,62.43,0,0,0-18.72,5.42,45,45,0,0,0-10.78,7.17l-1.44,1.39c-.41.41-.73.79-1,1.08l-.6.68A1.63,1.63,0,0,0,391.69,430.48Z" style="fill:#263238"></path><path d="M401.05,427.94a3.87,3.87,0,0,0,.5-.34c.33-.23.77-.62,1.41-1a39.92,39.92,0,0,1,5.54-3.3,47.52,47.52,0,0,1,9-3.34A62,62,0,0,1,429.28,418,117.43,117.43,0,0,1,451,419l6.53.86,1.77.23a2.71,2.71,0,0,0,.63.05,4.7,4.7,0,0,0-.61-.14l-1.76-.31c-1.54-.26-3.76-.61-6.52-1a109.83,109.83,0,0,0-21.74-1.14,61.94,61.94,0,0,0-11.83,1.93,46.45,46.45,0,0,0-9.08,3.47,36,36,0,0,0-5.5,3.43c-.61.45-1,.86-1.35,1.11A2.56,2.56,0,0,0,401.05,427.94Z" style="fill:#263238"></path><path d="M383.82,403.05l-.11-.24-.3-.73-1.09-2.81a17.18,17.18,0,0,0-6.79-8.39c-3.86-2.6-9.29-4.27-15.39-5a101.39,101.39,0,0,0-20-.22c-3.56.27-7,.64-10.36,1.07s-6.55.88-9.65,1.12c-6.17.51-11.74.74-16.41.93s-8.46.29-11.08.34l-3,0h-.78l-.27,0a.94.94,0,0,1,.27,0l.78-.05,3-.14,11.06-.5c4.67-.24,10.24-.52,16.39-1.05,3.08-.25,6.29-.72,9.63-1.15s6.81-.81,10.38-1.08a100,100,0,0,1,20.13.26c6.14.8,11.63,2.52,15.53,5.2a17.13,17.13,0,0,1,6.78,8.63c.42,1.21.76,2.16,1,2.85l.25.74A.88.88,0,0,1,383.82,403.05Z" style="fill:#263238"></path><path d="M383.94,402.81a1.1,1.1,0,0,1,0-.27l.05-.8a18.24,18.24,0,0,1,.48-3.07,21.17,21.17,0,0,1,1.68-4.6,14,14,0,0,1,4.12-5c3.77-3,9.21-5.37,15.49-6.47a79.08,79.08,0,0,1,20.63-.64c3.66.3,7.21.77,10.63,1.31s6.68,1.23,9.81,1.7a130.2,130.2,0,0,0,16.75,1.44c4.79.09,8.67,0,11.35-.19L478,386l.8-.06h.28l-.27.06-.8.11c-.7.09-1.74.19-3.08.3-2.67.21-6.56.41-11.36.36a126.27,126.27,0,0,1-16.83-1.34c-3.15-.46-6.4-1.14-9.81-1.66s-6.95-1-10.59-1.31a80.41,80.41,0,0,0-20.51.61,34.28,34.28,0,0,0-15.34,6.28,13.69,13.69,0,0,0-4.09,4.86,22.06,22.06,0,0,0-1.75,4.52,23,23,0,0,0-.57,3c0,.32-.07.58-.09.79A1.45,1.45,0,0,1,383.94,402.81Z" style="fill:#263238"></path></g><g id="freepik--Mugs--inject-151"><path d="M672.74,428.72c0,6.81-13.22,12.34-29.53,12.34s-29.53-5.53-29.53-12.34,13.22-11.88,29.53-11.88S672.74,421.9,672.74,428.72Z" style="fill:#e0e0e0"></path><path d="M643.21,462.57h0a29.53,29.53,0,0,1-29.53-29.52v-5.66l59.06.6v5.06A29.53,29.53,0,0,1,643.21,462.57Z" style="fill:#e0e0e0"></path><g style="opacity:0.30000000000000004"><ellipse cx="643.21" cy="429.35" rx="27.95" ry="10.42"></ellipse></g><path d="M619,434.58c4.84,3.1,13.85,5.2,24.18,5.2s19.35-2.1,24.18-5.2c-4.83-3.11-13.85-5.2-24.18-5.2S623.87,431.47,619,434.58Z" style="fill:#6f4439"></path><path d="M672.24,438.66a3.18,3.18,0,0,1,2.51-.3c.29.1.32.11.1,0l.41.22.39.25c-.2-.16-.18-.14,0,0l.33.33c.17.2.2.24.1.1s-.07-.09.08.13a3.14,3.14,0,0,1,.24.39c.13.27.14.28,0,0a3.26,3.26,0,0,1,.15.44,3.59,3.59,0,0,1,.12.47c0-.26,0-.23,0,.07s0,.49,0,.74,0,.33,0,.07c0,.16-.07.32-.11.49a7.13,7.13,0,0,1-1.45,2.61,11.8,11.8,0,0,1-1.21,1.13c.38-.3-.36.24-.43.29-.26.17-.53.33-.8.48s-.55.28-.83.41c.39-.18-.16.06-.27.1a11.08,11.08,0,0,1-1.79.51l-.69.12c.54-.08-.4,0-.5,0a16.49,16.49,0,0,1-1.86,0c-.74-.06.47.1-.26,0-.31-.06-.61-.12-.91-.2a9.07,9.07,0,0,1-.89-.26l-.44-.16c.23.11.22.1,0,0a2.56,2.56,0,0,0-3.42.9,2.52,2.52,0,0,0,.9,3.42,15,15,0,0,0,14.72-1.23,12.34,12.34,0,0,0,5-6.76,8.19,8.19,0,0,0-2.14-8,8.09,8.09,0,0,0-9.59-1.09,2.5,2.5,0,0,0,2.52,4.32Z" style="fill:#e0e0e0"></path><path d="M672.18,413.08c0,6.82-13.22,12.34-29.52,12.34s-29.53-5.52-29.53-12.34,13.22-11.88,29.53-11.88S672.18,406.26,672.18,413.08Z" style="fill:#e0e0e0"></path><path d="M642.66,446.94h0a29.53,29.53,0,0,1-29.53-29.53v-5.13l59,.07v5.06A29.53,29.53,0,0,1,642.66,446.94Z" style="fill:#e0e0e0"></path><g style="opacity:0.30000000000000004"><ellipse cx="642.66" cy="413.71" rx="27.95" ry="10.42"></ellipse></g><path d="M618.48,418.94c4.83,3.11,13.85,5.2,24.18,5.2s19.34-2.09,24.18-5.2c-4.84-3.11-13.85-5.2-24.18-5.2S623.31,415.83,618.48,418.94Z" style="fill:#6f4439"></path><path d="M671.68,423a3.18,3.18,0,0,1,2.51-.3c.29.11.33.11.1,0,.14.07.28.14.41.22a3.73,3.73,0,0,1,.39.25c-.19-.16-.18-.14,0,.05l.33.32c.17.2.2.24.1.11l.08.12a3.26,3.26,0,0,1,.24.4c.13.26.14.27,0,0l.15.44c0,.15.08.31.11.47,0-.26,0-.23,0,.07s0,.49,0,.74,0,.33,0,.07a4.31,4.31,0,0,1-.11.49,7,7,0,0,1-1.45,2.61,10.69,10.69,0,0,1-1.2,1.13c.37-.3-.36.24-.44.29-.26.17-.52.33-.8.48s-.55.28-.83.41c.39-.18-.16.07-.27.1a11.08,11.08,0,0,1-1.79.51l-.69.13c.55-.08-.4,0-.5,0a16.49,16.49,0,0,1-1.86,0c-.74-.05.47.1-.26,0l-.91-.19c-.3-.08-.6-.17-.89-.27l-.44-.16c.24.11.22.1,0,0a2.5,2.5,0,1,0-2.52,4.32,15,15,0,0,0,14.72-1.22,12.48,12.48,0,0,0,5-6.76,8.23,8.23,0,0,0-2.15-8,8.09,8.09,0,0,0-9.59-1.09,2.5,2.5,0,1,0,2.52,4.32Z" style="fill:#e0e0e0"></path><path d="M668.72,385.62c2.21,6.45-8.49,16-23.91,21.28s-29.72,4.38-31.94-2.06,8.64-15.53,24.06-20.84S666.5,379.18,668.72,385.62Z" style="fill:#e0e0e0"></path><path d="M651.81,427.24h0a29.53,29.53,0,0,1-37.53-18.31l-1.84-5.35,56-18.65,1.64,4.78A29.52,29.52,0,0,1,651.81,427.24Z" style="fill:#e0e0e0"></path><g style="opacity:0.30000000000000004"><path d="M667.42,386.74c1.88,5.44-8.43,13.92-23,18.95s-27.94,4.68-29.81-.77S623,391,637.61,386,665.55,381.29,667.42,386.74Z"></path></g><path d="M671.48,395.18a3.17,3.17,0,0,1,2.27-1.1c.31,0,.34,0,.1,0a5.23,5.23,0,0,1,.91.18c-.24-.09-.22-.08,0,0a4,4,0,0,1,.42.2c.22.13.27.15.13.06s-.1-.06.11.09a2.6,2.6,0,0,1,.36.3c.21.21.22.21,0,0,.1.11.2.24.29.36s.18.27.26.41c-.11-.23-.1-.21,0,.07s.17.46.24.7.08.32,0,.07c0,.16,0,.33,0,.49a7,7,0,0,1-.52,2.95,11.16,11.16,0,0,1-.77,1.45c.25-.4-.26.35-.32.42-.19.25-.39.48-.6.71s-.43.45-.65.67c.31-.3-.13.11-.22.18a13.52,13.52,0,0,1-1.53,1.07l-.61.34c.49-.26-.37.15-.46.19a15.85,15.85,0,0,1-1.77.57c-.72.2.47-.05-.26.06-.31,0-.61.09-.92.11s-.62,0-.93.05h-.47c.26,0,.24,0-.05,0a2.5,2.5,0,0,0-1,4.91,15,15,0,0,0,13.52-5.95,12.37,12.37,0,0,0,2.53-8,8.19,8.19,0,0,0-4.64-6.91,8.09,8.09,0,0,0-9.43,2.09,2.5,2.5,0,0,0,3.8,3.26Z" style="fill:#e0e0e0"></path><path d="M664.8,436.94s-.15.11-.47.27-.78.39-1.4.67a56.9,56.9,0,0,1-5.28,2.15,37.68,37.68,0,0,1-8.25,1.9,46.12,46.12,0,0,1-10.36-.06c-7.32-.9-13.74-3.1-17.88-5.62a16.59,16.59,0,0,1-4.42-3.61,7,7,0,0,1-.9-1.26c-.19-.31-.28-.47-.26-.48a2.75,2.75,0,0,1,.34.42,11.39,11.39,0,0,0,1,1.19,18.1,18.1,0,0,0,4.46,3.43c4.12,2.39,10.5,4.52,17.75,5.41a46.46,46.46,0,0,0,10.25.1,39.31,39.31,0,0,0,8.19-1.77c2.27-.74,4.07-1.48,5.31-2l1.44-.58A1.79,1.79,0,0,1,664.8,436.94Z" style="fill:#263238"></path><path d="M664.8,438.43s-.15.11-.47.27-.78.4-1.4.67a54.23,54.23,0,0,1-5.28,2.15,37.11,37.11,0,0,1-8.25,1.9,45.54,45.54,0,0,1-10.36-.06c-7.32-.89-13.74-3.1-17.88-5.61a16.79,16.79,0,0,1-4.42-3.62,7,7,0,0,1-.9-1.26c-.19-.3-.28-.46-.26-.47a2.3,2.3,0,0,1,.34.41,9.62,9.62,0,0,0,1,1.19,17.86,17.86,0,0,0,4.46,3.43c4.12,2.4,10.5,4.53,17.75,5.42a47.72,47.72,0,0,0,10.25.1,39.27,39.27,0,0,0,8.19-1.78c2.27-.73,4.07-1.48,5.31-2l1.44-.58A2.94,2.94,0,0,1,664.8,438.43Z" style="fill:#263238"></path><path d="M655.69,424.7a1.89,1.89,0,0,1-.48.16c-.32.08-.79.2-1.4.32a48.26,48.26,0,0,1-5.24.8,64.51,64.51,0,0,1-17.44-.71,40.83,40.83,0,0,1-9.24-2.74,19.68,19.68,0,0,1-6.59-4.31,7.64,7.64,0,0,1-2.08-4.85,4.88,4.88,0,0,1,.15-1.45,1.68,1.68,0,0,1,.17-.47,9.81,9.81,0,0,0-.12,1.91,7.63,7.63,0,0,0,2.15,4.61,19.81,19.81,0,0,0,6.51,4.12,41.14,41.14,0,0,0,9.14,2.66,69.38,69.38,0,0,0,17.31.87c2.22-.17,4-.44,5.24-.63A17.57,17.57,0,0,1,655.69,424.7Z" style="fill:#263238"></path><path d="M656.42,423.3s-.14.06-.42.14-.7.18-1.24.3c-1.08.23-2.66.53-4.62.76a64,64,0,0,1-15.45-.19,52.52,52.52,0,0,1-8.35-1.73,33.55,33.55,0,0,1-6.43-2.69,17.07,17.07,0,0,1-3.79-2.79,10.07,10.07,0,0,1-.84-1,1.44,1.44,0,0,1-.23-.38s.4.46,1.21,1.2a19.51,19.51,0,0,0,3.83,2.61,35.07,35.07,0,0,0,6.39,2.55,54.07,54.07,0,0,0,8.28,1.67,69.29,69.29,0,0,0,15.34.34c2-.18,3.54-.42,4.62-.59A13.55,13.55,0,0,1,656.42,423.3Z" style="fill:#263238"></path><g style="opacity:0.30000000000000004"><path d="M657.9,422.39a9.54,9.54,0,0,1,.55,4.9,7.57,7.57,0,0,1-.72,3.34,2.59,2.59,0,0,1-2.87,1.37,2.51,2.51,0,0,1-1.43-1.41,7.64,7.64,0,0,1-.51-2c-.7.82-1.62,1.71-2.68,1.53a2.28,2.28,0,0,1-1.62-1.55,12.9,12.9,0,0,1-.44-2.31,4,4,0,0,0-1.07-2.25s4.08-.3,6.17-.65S657.9,422.39,657.9,422.39Z"></path></g><path d="M597.79,403.25c0,7.15-13.22,12.95-29.53,12.95s-29.53-5.8-29.53-12.95,13.22-12.47,29.53-12.47S597.79,396.09,597.79,403.25Z" style="fill:#407BFF"></path><path d="M568.26,438.77h0c-16.31,0-29.53-13.87-29.53-31v-5.94l59.06.63v5.31C597.79,424.9,584.57,438.77,568.26,438.77Z" style="fill:#407BFF"></path><g style="opacity:0.30000000000000004"><ellipse cx="568.26" cy="403.91" rx="27.95" ry="10.94"></ellipse></g><ellipse cx="568.26" cy="409.39" rx="24.18" ry="5.46" style="fill:#6f4439"></ellipse><path d="M597.29,413.57a4.83,4.83,0,0,1,.45-.26l.11,0c.11,0,1-.2.59-.16.1,0,1,0,.61,0a3.81,3.81,0,0,1,1,.26c-.38-.15.2.13.26.17s.27.17.4.26c-.2-.14-.19-.12,0,.07.07.07.63.76.38.4a5.36,5.36,0,0,1,.48.84c-.18-.41.09.33.12.42s.06.25.08.37c0-.25,0-.22,0,.08a8.51,8.51,0,0,1,0,1c0-.46-.11.47-.14.57a8.31,8.31,0,0,1-.32,1c.16-.38-.19.33-.19.32a9.77,9.77,0,0,1-.53.88c-.09.14-.19.28-.29.41.12-.17.09-.15-.09.08a17,17,0,0,1-1.36,1.32c.32-.27-.16.11-.24.16-.26.18-.52.35-.79.5a9,9,0,0,1-.81.43l-.43.2c.25-.11.23-.1,0,0-.52.17-1,.34-1.55.46-.3.07-.6.13-.9.17.56-.08-.38,0-.48,0a12.36,12.36,0,0,1-1.61,0l-.46-.05c.29,0,.29,0,0,0l-.9-.21c-.29-.07-.59-.17-.88-.27l-.43-.17c.25.1.23.09,0,0a2.57,2.57,0,0,0-3.42.9,2.53,2.53,0,0,0,.89,3.42,14.54,14.54,0,0,0,14.75-1.3,12.87,12.87,0,0,0,4.94-6.85,8.73,8.73,0,0,0-2-8.39,7.88,7.88,0,0,0-9.68-1.21,2.5,2.5,0,0,0,2.53,4.32Z" style="fill:#407BFF"></path></g><g id="freepik--Device--inject-151"><path d="M101.58,419.3,189,469.69l23.67.16,31.67-42.4c2.2-3,.7-8.15-2.36-8.15Z" style="fill:#e0e0e0"></path><path d="M40.13,350.85H179.47c5.12,0,9.49,3.07,10.35,7.27l22.89,111.73H60.92c-5.11,0-9.49-3.07-10.35-7.27L29.78,361.06C28.69,355.72,33.63,350.85,40.13,350.85Z" style="fill:#e0e0e0"></path><path d="M109.77,414.59a9.21,9.21,0,0,0,10.76,6.68,8.39,8.39,0,0,0,6.12-10.53,9.22,9.22,0,0,0-10.76-6.68A8.39,8.39,0,0,0,109.77,414.59Z" style="fill:#fff"></path><path d="M242.84,421.86a1.1,1.1,0,0,1-.13.22l-.43.62-1.7,2.37-6.41,8.85-22.41,30.65-.33.45-.11-.54-5.17-25.21c-4.31-21.25-8.22-40.49-11.05-54.45-1.39-6.95-2.51-12.58-3.3-16.51l-.86-4.49c-.09-.5-.16-.88-.22-1.17a2.49,2.49,0,0,1-.05-.4,2.61,2.61,0,0,1,.11.39c.06.28.15.67.26,1.16.23,1.05.55,2.55,1,4.47.82,3.92,2,9.54,3.46,16.48,2.87,13.95,6.83,33.17,11.2,54.41l5.14,25.22-.44-.1,22.56-30.54c2.78-3.73,5-6.7,6.53-8.77l1.76-2.32.46-.6Z" style="fill:#263238"></path><path d="M209.4,469.83c-.14,0-5.48-25.18-11.93-56.29S185.9,357.16,186,357.14s5.48,25.17,11.94,56.29S209.54,469.8,209.4,469.83Z" style="fill:#263238"></path><g style="opacity:0.2"><polygon points="210.23 457.73 235.76 424.27 203.37 424.27 210.23 457.73"></polygon></g></g><g id="freepik--Line--inject-151"><path d="M448.21,34.66a13.63,13.63,0,0,1,1.42-.38,21.67,21.67,0,0,1,4.28-.55,23.75,23.75,0,0,1,7,.78,22.77,22.77,0,0,1,4.2,1.55,8.93,8.93,0,0,1,2.1,1.33,3.76,3.76,0,0,1,1.36,2.25,3.33,3.33,0,0,1-.71,2.68,7,7,0,0,1-2.31,1.82,11.87,11.87,0,0,1-2.91,1c-1,.19-2.09.41-3.18.54a52.47,52.47,0,0,1-14.23,0,52.3,52.3,0,0,1-15.68-4.67,13.41,13.41,0,0,1-3.66-2.51,5,5,0,0,1-1.58-4.23,5.27,5.27,0,0,1,2.82-3.68,13.6,13.6,0,0,1,4.54-1.56,43.31,43.31,0,0,1,20.06,1.23,42.37,42.37,0,0,1,9.83,4.38A23.15,23.15,0,0,1,466,38.07a13.06,13.06,0,0,1,3.17,4.71,8,8,0,0,1-.06,5.74,10.4,10.4,0,0,1-3.72,4.53,15.61,15.61,0,0,1-5.49,2.32,38.47,38.47,0,0,1-6,.83,58.57,58.57,0,0,1-24.52-3.53,25.16,25.16,0,0,1-5.79-2.86,9.34,9.34,0,0,1-4-5.17,6.13,6.13,0,0,1,.15-3.37,7.57,7.57,0,0,1,1.79-2.86,11.11,11.11,0,0,1,6-3,37.74,37.74,0,0,1,6.72-.6,53.47,53.47,0,0,1,6.8.32,55.83,55.83,0,0,1,13.41,3.19,54.84,54.84,0,0,1,12.42,6.53,25.37,25.37,0,0,1,5.22,4.87,12.31,12.31,0,0,1,2.74,6.64,11.22,11.22,0,0,1-1.93,7,15.16,15.16,0,0,1-5.38,4.93c-4.35,2.39-9.42,2.89-14.31,2.93a67.09,67.09,0,0,1-14.59-1.49,69.85,69.85,0,0,1-7-1.9,46.26,46.26,0,0,1-6.7-2.71,20.51,20.51,0,0,1-5.78-4.3,8.89,8.89,0,0,1,.36-13,14.33,14.33,0,0,1,6.15-3.4,32.87,32.87,0,0,1,6.87-1.08,47.85,47.85,0,0,1,6.88.08,48.5,48.5,0,0,1,13.18,3,43.39,43.39,0,0,1,11.54,6.51A16.25,16.25,0,0,1,468.2,58a8,8,0,0,1,.38,6.41,10.11,10.11,0,0,1-4.24,4.77,21.87,21.87,0,0,1-5.8,2.46,40.05,40.05,0,0,1-12.2,1.48,39.58,39.58,0,0,1-11.72-2.21,24.46,24.46,0,0,1-5.3-2.49,10.94,10.94,0,0,1-3.94-4.22,7,7,0,0,1,3-9.79c3.33-1.76,7.09-1.89,10.58-1.78a40,40,0,0,1,10.2,1.72,30,30,0,0,1,4.68,1.81,11.65,11.65,0,0,1,3.9,3,7.14,7.14,0,0,1,1.15,2.16,6.84,6.84,0,0,1,.28,2.41,8.33,8.33,0,0,1-.59,2.32,10.27,10.27,0,0,1-1.22,2A10.67,10.67,0,0,1,453.82,71a12.44,12.44,0,0,1-4.29,1.15,29.27,29.27,0,0,1-8.43-.71c-1.34-.28-2.66-.52-4-.88a9.76,9.76,0,0,1-3.54-1.7,5.66,5.66,0,0,1-2-3.21,4.06,4.06,0,0,1,1-3.48,6.93,6.93,0,0,1,3-1.89,10.72,10.72,0,0,1,3.32-.6,14.68,14.68,0,0,1,10.95,4.2,10.28,10.28,0,0,1,2.58,4.38,9,9,0,0,1,.09,4.46,10.28,10.28,0,0,1-3.65,5.87,7.13,7.13,0,0,1-3.94,1.63,4.49,4.49,0,0,1-1.1,0l-.37,0s.5.06,1.46,0a7.24,7.24,0,0,0,3.89-1.66,10.3,10.3,0,0,0,3.56-5.82,9,9,0,0,0-.11-4.38A10,10,0,0,0,449.67,64a14.48,14.48,0,0,0-10.79-4.1,10.77,10.77,0,0,0-3.24.6,6.84,6.84,0,0,0-2.86,1.82,3.78,3.78,0,0,0-.91,3.26,5.35,5.35,0,0,0,1.92,3c2,1.6,4.73,2,7.37,2.5a28.77,28.77,0,0,0,8.33.69,12.09,12.09,0,0,0,4.18-1.13,10.3,10.3,0,0,0,3.43-2.78,9.42,9.42,0,0,0,1.16-1.93,7.56,7.56,0,0,0,.56-2.21,6.64,6.64,0,0,0-.26-2.26,6.78,6.78,0,0,0-1.1-2.05,11.08,11.08,0,0,0-3.78-2.9,28.61,28.61,0,0,0-4.63-1.78A40,40,0,0,0,439,53c-3.47-.11-7.17,0-10.36,1.75a7,7,0,0,0-3.44,3.94,7.1,7.1,0,0,0,.6,5.29,10.59,10.59,0,0,0,3.8,4,24.25,24.25,0,0,0,5.2,2.44,39.23,39.23,0,0,0,23.65.7,21.54,21.54,0,0,0,5.68-2.41,9.68,9.68,0,0,0,4-4.54,7.56,7.56,0,0,0-.37-6,15.67,15.67,0,0,0-4-4.93,42.64,42.64,0,0,0-11.4-6.41,47.56,47.56,0,0,0-13-3,48.34,48.34,0,0,0-6.81-.07,32.27,32.27,0,0,0-6.76,1.06,13.76,13.76,0,0,0-5.93,3.27,8.37,8.37,0,0,0-.33,12.27,20.1,20.1,0,0,0,5.63,4.18,44.58,44.58,0,0,0,6.63,2.67,68,68,0,0,0,7,1.89,66.71,66.71,0,0,0,14.48,1.48c4.85,0,9.84-.54,14.06-2.86A14.65,14.65,0,0,0,472.44,63a10.66,10.66,0,0,0,1.86-6.65A11.81,11.81,0,0,0,471.66,50a24.88,24.88,0,0,0-5.11-4.77,54.6,54.6,0,0,0-12.3-6.47A55.58,55.58,0,0,0,441,35.62a54.16,54.16,0,0,0-6.73-.32,37.32,37.32,0,0,0-6.63.58,10.73,10.73,0,0,0-5.72,2.87,6.17,6.17,0,0,0-1.81,5.77,8.86,8.86,0,0,0,3.78,4.89,24.25,24.25,0,0,0,5.68,2.81,58.07,58.07,0,0,0,24.31,3.52c4-.3,8-.84,11.24-3.05a9.94,9.94,0,0,0,3.57-4.33,7.56,7.56,0,0,0,.06-5.44,12.53,12.53,0,0,0-3.06-4.54,22.72,22.72,0,0,0-4.34-3.32,42.21,42.21,0,0,0-9.73-4.36,42.83,42.83,0,0,0-19.88-1.24,13.12,13.12,0,0,0-4.43,1.5,5,5,0,0,0-2.66,3.42,4.65,4.65,0,0,0,1.48,3.94,13.12,13.12,0,0,0,3.57,2.45,51.82,51.82,0,0,0,15.57,4.68,52,52,0,0,0,14.16,0c1.08-.13,2.14-.33,3.16-.52a11.78,11.78,0,0,0,2.85-1,6.76,6.76,0,0,0,2.25-1.75,3.11,3.11,0,0,0,.68-2.51,3.65,3.65,0,0,0-1.28-2.15A9.06,9.06,0,0,0,465,36.22a23.56,23.56,0,0,0-11.08-2.39,23.29,23.29,0,0,0-4.27.5c-.47.09-.82.19-1.06.24Z" style="fill:#263238"></path></g><g id="freepik--Character--inject-151"><path d="M291.11,230.51A129.29,129.29,0,0,1,309,226c11.06-2,49.32-2.44,49.32-2.44s3.53,35.81,36,39.65c12.08,1.43,24.25-15.45,24.25-15.45s22.25,11.32,28.79,16.44c0,0,1.36,63,0,75.57s-7.67,38.42-7.67,38.42h-156V316Z" style="fill:#407BFF"></path><path d="M305.06,303.62c-10.32,18.11-24.71,38.06-24.71,38.06L219.6,312.77c0-1.38,35.09-60.25,48.67-70.6s28.22-15.88,38.22-13.12" style="fill:#407BFF"></path><path d="M306.49,229.05s-.21,0-.61-.1-1-.25-1.79-.32a26,26,0,0,0-7,.1,44.51,44.51,0,0,0-10.62,3,75.71,75.71,0,0,0-12.88,6.9c-1.12.77-2.28,1.53-3.42,2.38l-1.73,1.28c-.55.46-1.13.91-1.67,1.42a69.56,69.56,0,0,0-6.22,6.79c-4,4.95-8,10.48-12.13,16.39-8.13,11.84-16.63,25.18-25.05,39.47l-1.88,3.27-.9,1.63-.43.82c-.13.26-.28.58-.34.73l-.15-.24,60.73,29-.25.06c8.08-11.31,14.29-20.82,18.48-27.47,2.08-3.34,3.67-6,4.74-7.75l1.22-2c.27-.45.43-.68.43-.68s-.12.25-.38.71-.66,1.17-1.17,2.07c-1,1.81-2.59,4.45-4.65,7.81-4.13,6.7-10.29,16.24-18.34,27.59l-.1.14-.15-.07L219.49,313l-.19-.08,0-.15a4.82,4.82,0,0,1,.4-1l.43-.83.91-1.64,1.88-3.28c8.43-14.3,16.94-27.63,25.11-39.47,4.1-5.91,8.12-11.44,12.18-16.4a71.42,71.42,0,0,1,6.29-6.81c.55-.51,1.14-1,1.7-1.43l1.75-1.28c1.14-.85,2.31-1.61,3.44-2.38a75.16,75.16,0,0,1,13-6.86,44.61,44.61,0,0,1,10.7-2.89,24.65,24.65,0,0,1,7,0,13.78,13.78,0,0,1,1.79.37Z" style="fill:#263238"></path><path d="M308.83,231.83a4.43,4.43,0,0,1,.58.41,16.21,16.21,0,0,1,1.54,1.35,24.28,24.28,0,0,1,4.49,6,31.61,31.61,0,0,1,3.35,10.62,48.85,48.85,0,0,1-.29,13.65,97.31,97.31,0,0,1-7,23.74c-1.27,2.91-2.44,5.2-3.28,6.76-.42.78-.77,1.37-1,1.78a3.57,3.57,0,0,1-.38.6,3.44,3.44,0,0,1,.29-.65c.23-.47.54-1.07.92-1.83.79-1.58,1.9-3.88,3.13-6.8A102.59,102.59,0,0,0,318,263.81a49,49,0,0,0,.33-13.5,31.59,31.59,0,0,0-3.2-10.52,25.71,25.71,0,0,0-4.3-6.06C309.58,232.47,308.79,231.87,308.83,231.83Z" style="fill:#263238"></path><polygon points="463.37 349.61 490.55 376.06 528.77 354.36 490.13 288.37 454.36 264.24 448.51 342.47 463.37 349.61" style="fill:#407BFF"></polygon><path d="M502.24,212.72C497.44,178.09,485,143.11,466.35,112l-4.81,19.92a356.63,356.63,0,0,1,14.4,49.4c1,4.64,1.9,9.43,1.12,14.11-.93,5.54-4.11,10.39-6.58,15.44-3.48,7.14-5.62,15.32-3.78,23s8.51,14.64,16.45,14.82c7.72.18,14.51-6,17.36-13.14S503.31,220.37,502.24,212.72Z" style="fill:#263238"></path><path d="M487.42,247a3.63,3.63,0,0,1,.76,0l.92.09h1.25a20.27,20.27,0,0,0,7.74-1.68,21,21,0,0,0,9-7.36,18.44,18.44,0,0,0,2.74-6.33,25.36,25.36,0,0,0,.53-7.43,60.69,60.69,0,0,0-3.1-14.15c-1.35-4.27-2.8-8-4.11-11.15s-2.48-5.6-3.31-7.31l-.95-2a3.61,3.61,0,0,1-.31-.7,5.09,5.09,0,0,1,.4.65q.38.66,1,1.92c.88,1.68,2.1,4.14,3.46,7.25s2.85,6.88,4.23,11.15a59.91,59.91,0,0,1,3.16,14.27,25.68,25.68,0,0,1-.55,7.57,18.86,18.86,0,0,1-2.84,6.49,21.07,21.07,0,0,1-9.25,7.43,19.52,19.52,0,0,1-7.88,1.54l-1.26-.06-.92-.13A4.49,4.49,0,0,1,487.42,247Z" style="fill:#263238"></path><path d="M357.89,112l-39.4,59.22c-4.31,6.48-8.74,13.27-9.68,21-1.59,13,6.42,34.4,19.36,36.12s29.49,6.31,31.34-6.61l27.15-90.38L357.89,112" style="fill:#263238"></path><path d="M477.91,315.5c-1.06-11-5.88-21.17-10-31.4a268.6,268.6,0,0,1-18.05-72.31l-34,30.7c1.33,15.73,2.48,32.4-4.63,46.49-2,4-4.72,7.87-5.05,12.33-.58,7.95,6.39,14.38,8.35,22.1,1.53,6.07-.19,12.58-3.28,18s-7.46,10-11.68,14.63c-1.85,2-3.82,4.64-2.95,7.24s3.82,3.48,6.43,3.84a40.94,40.94,0,0,0,26-5.14c.4,1.81.81,3.62,1.21,5.43a47.37,47.37,0,0,0,47.6-51.92Z" style="fill:#263238"></path><path d="M364.49,104.62c17-14.33,37.36-20.61,59.27-16.9,12.36,2.08,17,5.59,25.41,9.64s15.55,10.3,19.45,18.79c4.62,10.1,8.05,21.08,7.22,32.15-.86,11.37-1.65,22.84-4.64,33.85-3,11.17-13.4,35.28-21.18,42.53l-24.53-13.31C409.68,209,393.65,206.54,379,200.1s-28-17.44-33.68-32.38C337.4,147,347.51,119,364.49,104.62Z" style="fill:#263238"></path><path d="M416,249.87l1.74-11s25.84,2.25,37.78-26.29c5.94-14.2,11.09-38.59,14.66-58.68,3.22-18.09-7.59-45.54-29.87-49.77l-9.69-3-40.74,8a10.74,10.74,0,0,0-11.92,8.31L358.76,226c-.16,6.38,6.76,21.89,12.69,27.68h0c15.21,16.68,37.43,12.19,44.51-3.79Z" style="fill:#ffbf9d"></path><path d="M412.17,197.31a6.47,6.47,0,0,1,2.92-3.5,6.59,6.59,0,0,1,7.93,1,8.84,8.84,0,0,1,1.78,8.75h0a8,8,0,0,1-6.25,2.22,9.34,9.34,0,0,1-1.06-.16,7.2,7.2,0,0,1-4.42-2.78A6.43,6.43,0,0,1,412.17,197.31Z" style="fill:#ff9a6c"></path><path d="M453.8,174.79a3.92,3.92,0,0,1-4.61,3,3.75,3.75,0,0,1-3.09-4.39,3.91,3.91,0,0,1,4.6-2.95A3.76,3.76,0,0,1,453.8,174.79Z" style="fill:#263238"></path><path d="M461.48,162.65c-.59.38-3-2.45-7.06-3.44s-7.6.33-7.92-.28c-.17-.27.53-1.05,2.07-1.69a10.84,10.84,0,0,1,6.5-.39,10.38,10.38,0,0,1,5.46,3.36C461.56,161.49,461.77,162.49,461.48,162.65Z" style="fill:#263238"></path><path d="M428.83,190.17c0-.24,2.7-.06,6.95.42,1.07.15,2.12.18,2.47-.49s.26-1.93.05-3.27q-.56-4.16-1.15-8.72c-1.54-12.39-2.38-22.48-1.88-22.53s2.15,9.93,3.69,22.32q.53,4.57,1,8.74c.11,1.29.46,2.8-.46,4.24a2.72,2.72,0,0,1-2.09,1.11,7.18,7.18,0,0,1-1.84-.19C431.37,191,428.79,190.41,428.83,190.17Z" style="fill:#263238"></path><path d="M417.75,238.84a77.77,77.77,0,0,1-37.18-20.29s5.58,23.16,36,27.62Z" style="fill:#ff9a6c"></path><path d="M450.56,138.51c1.22-.26,3.08,2.47,6,4.84s5.89,3.82,5.85,5.07c0,.58-1,1-2.7.87a11.41,11.41,0,0,1-5.91-2.66,11.26,11.26,0,0,1-3.66-5.33C449.73,139.7,450,138.65,450.56,138.51Z" style="fill:#263238"></path><path d="M408.66,167.25a3.91,3.91,0,0,0,2.91,4.63,3.75,3.75,0,0,0,4.67-2.65,3.92,3.92,0,0,0-2.91-4.63A3.75,3.75,0,0,0,408.66,167.25Z" style="fill:#263238"></path><path d="M405.75,150.63c.38.59,3.72-1,7.85-.11s6.74,3.54,7.29,3.12c.27-.17,0-1.18-1.16-2.41a10.79,10.79,0,0,0-5.7-3.12,10.38,10.38,0,0,0-6.38.71C406.18,149.54,405.56,150.35,405.75,150.63Z" style="fill:#263238"></path><path d="M425.73,140.66c-.84-.95-4.09.07-8,.14s-7.23-.59-8,.42c-.33.49.2,1.44,1.65,2.34a12.09,12.09,0,0,0,6.51,1.52,11.92,11.92,0,0,0,6.37-2C425.65,142.12,426.1,141.13,425.73,140.66Z" style="fill:#263238"></path><path d="M373.69,168.83c.53-2.21-.75-8-2.85-8.92-5.61-2.33-16.24-4.42-19.94,10.37-5.06,20.21,16.27,21.12,16.45,20.55S371.85,176.47,373.69,168.83Z" style="fill:#ffbf9d"></path><path d="M363.63,182.05c-.08-.08-.42.16-1.08.28a3.63,3.63,0,0,1-2.65-.6c-1.94-1.32-2.88-5.16-2.07-8.83a12,12,0,0,1,2.25-4.79c1-1.33,2.2-2.12,3.32-2a1.85,1.85,0,0,1,1.84,1.48c.13.64-.1,1,0,1.07s.52-.23.56-1.1a2.29,2.29,0,0,0-.48-1.47,2.66,2.66,0,0,0-1.81-1c-1.59-.28-3.35.8-4.47,2.21a12.37,12.37,0,0,0-2.63,5.33c-.89,4.1.24,8.44,2.95,10a3.87,3.87,0,0,0,3.36.27C363.47,182.53,363.69,182.11,363.63,182.05Z" style="fill:#ff9a6c"></path><path d="M370,159.82l4.19,6.35c26.43-17.3,80.27-62.9,77.23-60.15,0,0-14.19-9.18-31.4-9.44s-50.4,2.2-53.58,22S370,159.82,370,159.82Z" style="fill:#263238"></path><path d="M424.65,205c-.1-.06,0-.36,0-.85a3.46,3.46,0,0,0-.54-2,4,4,0,0,0-.91-1,6.46,6.46,0,0,0-1.44-.78,19,19,0,0,0-3.88-1.09,40.29,40.29,0,0,0-7.48-.52c-1.93.05-3.16.15-3.2-.07s1.1-.69,3.09-1a24.39,24.39,0,0,1,7.85.08,16.09,16.09,0,0,1,4.21,1.31,6.86,6.86,0,0,1,1.71,1.13,4.77,4.77,0,0,1,1,1.51,3.39,3.39,0,0,1,.14,2.57C425,204.89,424.73,205.09,424.65,205Z" style="fill:#263238"></path><path d="M434.16,139a3,3,0,0,1,1,1.46,5.66,5.66,0,0,1-2.89,7.44,2.91,2.91,0,0,1-1.75.37c0-.08.66-.19,1.58-.7a5.73,5.73,0,0,0,2.72-7C434.51,139.55,434.08,139,434.16,139Z" style="fill:#ff9a6c"></path><path d="M445.65,148.81a3.35,3.35,0,0,1-1.89-.26,6.72,6.72,0,0,1-4.49-7.41,3.4,3.4,0,0,1,.64-1.8c.08,0-.2.7-.28,1.84a7,7,0,0,0,4.26,7C444.93,148.66,445.66,148.73,445.65,148.81Z" style="fill:#ff9a6c"></path><path d="M404.21,174.88a7.49,7.49,0,0,1-5.5-5.4,24.19,24.19,0,0,0,2.37,3.09A24.59,24.59,0,0,0,404.21,174.88Z" style="fill:#ff9a6c"></path><path d="M453.84,180.94c0,.14-.7.47-1.65.74s-1.75.38-1.79.25.69-.48,1.64-.75S453.8,180.8,453.84,180.94Z" style="fill:#ff9a6c"></path><path d="M453.18,182.91c0,.14-.44.39-1.07.58s-1.18.21-1.22.07.44-.39,1.07-.57S453.14,182.77,453.18,182.91Z" style="fill:#ff9a6c"></path><path d="M481.18,142.29a5.17,5.17,0,0,1,0-.83c0-.54.15-1.34.32-2.37.33-2,1-5,1.9-8.55s1.74-8,.95-12.78a15.49,15.49,0,0,0-2.79-6.94,12,12,0,0,0-2.86-2.73,16.57,16.57,0,0,0-3.68-1.81,70.27,70.27,0,0,0-7.94-2l-7.48-1.69L447,99.64l-8.52-2-2.32-.57a4.34,4.34,0,0,1-.8-.23,4.77,4.77,0,0,1,.82.13l2.34.47,8.56,1.84,12.69,2.79,7.5,1.66a68.79,68.79,0,0,1,8,2.06,17.14,17.14,0,0,1,3.79,1.87,12.48,12.48,0,0,1,3,2.86,15.92,15.92,0,0,1,2.86,7.16c.77,4.92-.23,9.37-1.08,12.94s-1.66,6.48-2.05,8.51c-.2,1-.33,1.81-.41,2.34A4.64,4.64,0,0,1,481.18,142.29Z" style="fill:#263238"></path><path d="M324.66,210.62a1.44,1.44,0,0,1-.34,0l-1,0a11.26,11.26,0,0,1-1.65-.08,17.14,17.14,0,0,1-2.24-.36,20.77,20.77,0,0,1-5.74-2.32,24.16,24.16,0,0,1-6.2-5.37,26.31,26.31,0,0,1-2.69-3.95,25.53,25.53,0,0,1-2-4.81,29.7,29.7,0,0,1-.91-11.36c.84-8.06,4.73-16.43,10.61-23.59s12.64-13,18.59-18.33L347,126.36l10.76-9.52,2.94-2.56.78-.66.27-.21s-.07.09-.24.25l-.74.7L357.9,117l-10.65,9.63-15.84,14.25c-5.93,5.38-12.7,11.11-18.5,18.29s-9.69,15.38-10.54,23.32a29.23,29.23,0,0,0,.85,11.19,24.33,24.33,0,0,0,1.91,4.74,25.41,25.41,0,0,0,2.63,3.91,23.84,23.84,0,0,0,6.06,5.35,21,21,0,0,0,5.64,2.37,17,17,0,0,0,2.2.4,12.23,12.23,0,0,0,1.64.13l1,0Z" style="fill:#263238"></path><path d="M482.22,121.59c-11-5.5-25.48-4.91-34.43,1.39l.07.11-7.49-.61c-8.34-5.79-24.84-9.45-35.38-5.6l-33.78,13.64-1.79,4.23,36.11-14.48.15.32c.82,3.64,4.72,15.21,5.91,17.19,1.69,2.81,17.67,4.48,21.65,2.27,3.81-2.13,6-13.59,7.06-16.11l7.68.58c.64,3.31,2.84,14.2,4.4,15.75s10.24,1.36,11.24,1.35c.83,0,2,0,3.24-.11,3.29-.19,7.38-.66,8.65-1.87,1.88-1.78,4.05-8.73,5.92-15.29l.31-1.07c.07-.25.13-.42.15-.49h0ZM432.6,138.77c-3.94,2.19-18.81,0-19.87-1.76a98.72,98.72,0,0,1-6-16.68c9.4-4,23.7-1.14,31.86,4.37C437.17,129.27,435.33,137.25,432.6,138.77Zm47.54-14.85c-1,3.52-3.68,12.88-5.53,14.64-2.2,2.08-19.75,2-21.31.66-.89-.9-2.65-8.24-3.79-14,7.77-5.32,20.87-5.83,30.67-1.48C480.17,123.82,480.15,123.86,480.14,123.92Z" style="fill:#455a64"></path><g style="opacity:0.30000000000000004"><path d="M437,125.57s-2.19,11.22-5.47,11.57-6.23-17-6.23-17S435.11,122.68,437,125.57Z" style="fill:#fff"></path></g><g style="opacity:0.30000000000000004"><path d="M478.87,124.21S476.6,137,473.32,137.3s-9-15.66-9-15.66S477,121.32,478.87,124.21Z" style="fill:#fff"></path></g><path d="M381.57,120.36c.05.07-1.13.82-2.8,2.33a35.85,35.85,0,0,0-5.64,6.66,81.83,81.83,0,0,0-4.39,7.61,25.57,25.57,0,0,1-1.77,3.19,3.8,3.8,0,0,1,.34-.92c.25-.58.62-1.42,1.1-2.44a61,61,0,0,1,4.29-7.73,31.32,31.32,0,0,1,5.83-6.65,19.44,19.44,0,0,1,2.17-1.59A3.52,3.52,0,0,1,381.57,120.36Z" style="fill:#455a64"></path><path d="M320,191.89a.92.92,0,0,1,0-.27c0-.2,0-.46.05-.77,0-.69.14-1.69.31-3a52,52,0,0,1,2.76-10.62,68.61,68.61,0,0,1,7.53-14.42,109.27,109.27,0,0,1,12.78-15.29c5-5,10-9.54,14.54-13.63s8.62-7.81,11.92-11,5.87-6,7.59-7.9l2-2.24.51-.58.19-.19s0,.08-.14.22l-.48.62c-.41.54-1,1.31-1.89,2.3-1.67,2-4.2,4.76-7.48,8s-7.33,7-11.86,11.13-9.53,8.62-14.49,13.64a111.63,111.63,0,0,0-12.75,15.2,70.32,70.32,0,0,0-7.59,14.28,55.09,55.09,0,0,0-2.9,10.52c-.2,1.27-.35,2.27-.41,3,0,.31-.07.56-.1.77A.82.82,0,0,1,320,191.89Z" style="fill:#455a64"></path><path d="M349.22,127.49a3,3,0,0,1-.07-.64c0-.43-.08-1,0-1.86a32,32,0,0,1,.78-6.77,33.6,33.6,0,0,1,22.28-25,34.81,34.81,0,0,1,9.94-1.82,31.81,31.81,0,0,1,6.8.47c.79.11,1.39.3,1.81.39a2.85,2.85,0,0,1,.62.18s-.88-.14-2.46-.37a35.46,35.46,0,0,0-16.56,1.61A33.2,33.2,0,0,0,353.89,109a35.4,35.4,0,0,0-3.65,9.3,34.78,34.78,0,0,0-.94,6.69C349.24,126.6,349.27,127.49,349.22,127.49Z" style="fill:#263238"></path><path d="M480.94,235.12s53.22,81.3,58.33,95.37.31,47.51-18,47.44c-25.41-.09-31.84-10.75-39.08-28.22S456.73,250,456.73,250Z" style="fill:#ffbf9d"></path><path d="M457.65,253.53c-1.79-7.48-11.6-19.72-7.63-28.85,3.25-7.48,10.41-17.31,12.76-22.35s3.7-20.49,3.7-20.49l1.12-18.68s-4.5-12.73-1.48-17.1c1.51-2.18,3.19-2.18,4.49-1.64a4.49,4.49,0,0,1,2.56,3.31l.7,3.54s2-2.69,5.37.33,6.48,23.15,7.85,30.33c1.55,8.06,1.09,12.73-.23,17.44-2.23,8-6.95,24.12-7.28,28.15S484,239.79,484,239.79" style="fill:#ffbf9d"></path><path d="M484,239.79a4,4,0,0,1-.26-.41c-.17-.28-.4-.7-.7-1.26a48.68,48.68,0,0,1-2.34-5.05,20.3,20.3,0,0,1-1.14-3.88,13,13,0,0,1,.44-4.8c.73-3.39,1.73-7.2,2.87-11.42s2.46-8.84,3.85-13.83a29.74,29.74,0,0,0,1.13-7.87,45,45,0,0,0-.82-8.46c-1.09-5.76-2.09-11.86-3.48-18.13a76.13,76.13,0,0,0-2.59-9.44c-.61-1.52-1.19-3.16-2.62-4a3.81,3.81,0,0,0-2.22-.78,2.82,2.82,0,0,0-2,1l-.32.4-.13-.5c-.59-2.21-.43-5-2.48-6.31a3.12,3.12,0,0,0-3.23-.3,4.81,4.81,0,0,0-2.14,2.71,11.36,11.36,0,0,0-.41,4,28.29,28.29,0,0,0,.48,4,54.47,54.47,0,0,0,2,7.64l0,.05v0c-.43,6.79-.78,13.37-1.23,19.7-.32,3.16-.7,6.25-1.16,9.25a60.72,60.72,0,0,1-1.88,8.72,20.74,20.74,0,0,1-1.82,3.9c-.69,1.23-1.41,2.41-2.12,3.57-1.44,2.31-2.83,4.56-4.17,6.72s-2.56,4.29-3.66,6.36a19.29,19.29,0,0,0-2.41,6.21,16.46,16.46,0,0,0,.36,6,35.78,35.78,0,0,0,1.66,5.15c1.27,3.14,2.59,5.74,3.59,7.9a52.32,52.32,0,0,1,2.12,5,16.2,16.2,0,0,1,.51,1.83s-.06-.16-.16-.46-.21-.76-.44-1.34c-.42-1.17-1.17-2.84-2.2-5s-2.37-4.73-3.67-7.88a35.75,35.75,0,0,1-1.71-5.18,16.77,16.77,0,0,1-.4-6.13c2.07-8.55,9.42-16.46,14.09-26.87a59.5,59.5,0,0,0,1.84-8.64c.45-3,.83-6.08,1.14-9.23.44-6.31.78-12.9,1.2-19.68l0,.1a54.26,54.26,0,0,1-2-7.72,29.1,29.1,0,0,1-.49-4.09,11.7,11.7,0,0,1,.44-4.18,5.32,5.32,0,0,1,2.39-3,3.31,3.31,0,0,1,1.95-.37,4.23,4.23,0,0,1,1.81.7,4.85,4.85,0,0,1,2,3.15c.23,1.18.46,2.34.69,3.49l-.46-.11a3.35,3.35,0,0,1,2.44-1.2,4.44,4.44,0,0,1,2.52.88,6.84,6.84,0,0,1,1,.86,6.53,6.53,0,0,1,.75,1.08,17.77,17.77,0,0,1,1,2.33,75.7,75.7,0,0,1,2.61,9.51c1.38,6.3,2.37,12.4,3.44,18.16a45.68,45.68,0,0,1,.81,8.54,30.46,30.46,0,0,1-1.18,8c-1.41,5-2.71,9.6-3.9,13.81s-2.2,8-2.95,11.38a12.91,12.91,0,0,0-.47,4.71,19.79,19.79,0,0,0,1.08,3.85,54.37,54.37,0,0,0,2.25,5.07c.29.55.5,1,.66,1.28S484,239.79,484,239.79Z" style="fill:#ff9a6c"></path><path d="M468.71,208.85a33.6,33.6,0,0,1-3,1.87,30.25,30.25,0,0,0-6.53,5.23,15.69,15.69,0,0,0-3.76,7.34,21.72,21.72,0,0,0-.22,3.46,2.73,2.73,0,0,1-.19-.93,10,10,0,0,1,0-2.59,14.93,14.93,0,0,1,3.73-7.62,27,27,0,0,1,6.73-5.21c.95-.53,1.73-.93,2.28-1.19A3.47,3.47,0,0,1,468.71,208.85Z" style="fill:#ff9a6c"></path><path d="M476.19,186.12a9,9,0,0,1-.05-1.47c0-1,0-2.32-.06-4a72.27,72.27,0,0,0-1.57-13.09c-1.05-5-2.89-9.49-2.44-13A5.58,5.58,0,0,1,474,151a3.62,3.62,0,0,1,1-.54c.25-.08.38-.11.38-.09a7.73,7.73,0,0,0-1.21.79,5.49,5.49,0,0,0-1.71,3.42,16.89,16.89,0,0,0,.76,5.8c.55,2.15,1.28,4.53,1.81,7.07a62.63,62.63,0,0,1,1.44,13.19c0,1.7-.06,3.07-.11,4A7.33,7.33,0,0,1,476.19,186.12Z" style="fill:#ff9a6c"></path><path d="M466.94,168.88a11.6,11.6,0,0,1,.66,2.46,43.3,43.3,0,0,1,.93,6.09,42.83,42.83,0,0,1-.09,6.16,11.81,11.81,0,0,1-.33,2.53,13.73,13.73,0,0,1,0-2.55c0-1.56.1-3.73-.06-6.1s-.53-4.51-.77-6.06A12.46,12.46,0,0,1,466.94,168.88Z" style="fill:#ff9a6c"></path><path d="M470.29,186.19a5.14,5.14,0,0,1-.11-1.09c0-.82-.1-1.81-.17-3-.15-2.51-.45-6-1-9.78s-1.2-7.22-1.73-9.68c-.25-1.14-.46-2.12-.63-2.92a4.08,4.08,0,0,1-.18-1.08,4.43,4.43,0,0,1,.37,1c.22.68.49,1.66.8,2.89a93.89,93.89,0,0,1,1.89,9.69,87.43,87.43,0,0,1,.84,9.83c0,1.27,0,2.29,0,3A4.2,4.2,0,0,1,470.29,186.19Z" style="fill:#ff9a6c"></path><path d="M472.26,185.92a4.25,4.25,0,0,1-2.44.26,10.28,10.28,0,0,1-2.41-.26c0-.17,1.1-.36,2.44-.26A10.28,10.28,0,0,1,472.26,185.92Z" style="fill:#ff9a6c"></path><path d="M476.19,186.12c0,.06-.2,0-.44-.06s-.54-.27-.77-.22c-.74.16-1.44,0-1.4-.16s.58-.2,1.34-.36a1,1,0,0,1,.65.15,2.08,2.08,0,0,1,.38.28C476.14,185.92,476.23,186.06,476.19,186.12Z" style="fill:#ff9a6c"></path><path d="M208.66,339.14S195.2,356.5,198,374.37c2.16,13.66,8.21,20.08,33.57,19.94,20.4-.11,105.34-27.43,105.34-27.43l7.11-33.74c1,1-80,14.34-80,14.34l7.36-9.68-47.85-23.16Z" style="fill:#ffbf9d"></path><path d="M389.39,306.88c1.27-.55,40.6-23.81,40.6-23.81l9.22-.64-5.34,8.22-47.45,27.83Z" style="fill:#455a64"></path><path d="M319.38,341.26s10.26-2.55,11-3.55,16.14-29.27,17.65-30.53,25-14.63,30.53-14.88,26.2,7.3,27.21,8.56,2.5,7.59-5,7.33c-4.1-.14-4.34-.32-4.34-.32l1.76,10a2.56,2.56,0,0,1-2.27,3c-1.51.14-3.08.16-3.08-.36s0,3.93.08,7.41a3.49,3.49,0,0,1-4.28,3.44c-2.4-.56-5-2-5.59-5.62l-4.36,5.54,3.06,7.3-.76,9.68s-6,.12-7.43-4.55c-1.78-5.81-1.33-6.77-1.33-6.77s-3.69,9.54-8.79,15.13c-8.26,9.07-31.68,16.6-31.68,16.6Z" style="fill:#ffbf9d"></path><path d="M363.08,318.15l.18-.09.57-.23L366,317l8.26-3.14.08,0,.07,0,8.39,5.42.12.08,0,.15a13.47,13.47,0,0,0,.44,6.68,7.4,7.4,0,0,0,1.74,3.1,7.05,7.05,0,0,0,3.27,1.71,13.48,13.48,0,0,0,1.92.31,1.91,1.91,0,0,0,2.29-2.14c0-.68,0-1.38,0-2.07,0-2.79,0-5.66,0-8.58,0-.91,0-1.83,0-2.73a4.67,4.67,0,0,0-.62-2.48,19.56,19.56,0,0,0-3.18-4.11,64.8,64.8,0,0,0-7.53-6.48q-1.9-1.43-3.79-2.67c-.62-.4-1.25-.81-1.88-1.15a3.9,3.9,0,0,0-2-.26,27.69,27.69,0,0,0-7.42,2.32c-4.4,1.93-7.81,3.83-10.18,5.1l-2.72,1.47-.72.37a.84.84,0,0,1-.26.1s1.27-.77,3.6-2.12,5.73-3.27,10.13-5.25a27.7,27.7,0,0,1,7.54-2.42,4.27,4.27,0,0,1,2.23.3c.66.35,1.29.75,1.92,1.16,1.27.82,2.55,1.72,3.83,2.67a63.58,63.58,0,0,1,7.61,6.51,19.82,19.82,0,0,1,3.27,4.22,5.22,5.22,0,0,1,.68,2.7c0,.91,0,1.82,0,2.74,0,2.93,0,5.8,0,8.59,0,.7,0,1.4,0,2.08a2.85,2.85,0,0,1-.14,1.1,2.33,2.33,0,0,1-.63.94,2.5,2.5,0,0,1-2.07.59,13.25,13.25,0,0,1-2-.33,7.56,7.56,0,0,1-3.49-1.84,7.9,7.9,0,0,1-1.84-3.31,13.73,13.73,0,0,1-.41-6.93l.09.23-8.34-5.49h.15l-8.32,3-2.23.78-.58.19C363.15,318.14,363.08,318.16,363.08,318.15Z" style="fill:#ff9a6c"></path><path d="M392.6,320.52s.55.15,1.57.25a4.76,4.76,0,0,0,1.81-.1,2.92,2.92,0,0,0,1.75-1.48,2.73,2.73,0,0,0,.28-1.31,13,13,0,0,0-.22-1.52c-.2-1.08-.4-2.21-.62-3.41-.44-2.39-.95-5-1.63-7.75a9,9,0,0,0-1.54-3.65,14.13,14.13,0,0,0-2.71-2.6,40.74,40.74,0,0,0-5.49-3.36c-1.63-.85-3-1.5-3.88-2a4.94,4.94,0,0,1-1.34-.9s.5.29,1.43.72,2.3,1,4,1.85a38.12,38.12,0,0,1,5.61,3.31,14.42,14.42,0,0,1,2.82,2.67,6.47,6.47,0,0,1,.58.86,4.4,4.4,0,0,1,.46.95,14.64,14.64,0,0,1,.61,2c.68,2.75,1.17,5.39,1.6,7.8.2,1.2.38,2.34.56,3.42a13.94,13.94,0,0,1,.21,1.58,3.22,3.22,0,0,1-2.35,3.08,4.6,4.6,0,0,1-1.92,0,6.71,6.71,0,0,1-1.17-.28A1.17,1.17,0,0,1,392.6,320.52Z" style="fill:#ff9a6c"></path><path d="M344.47,362.88a18.21,18.21,0,0,0,3.83-5.55c1.84-3.9,3.23-10.12,3.08-17.63v-.09l.05-.06,4.92-5.6.07-.08h.11l10.77,0h.07l.05,0,4.94,2.85.16.09,0,.21a8.17,8.17,0,0,0,.22,3.62,15,15,0,0,0,1.51,3.54,8.54,8.54,0,0,0,2.82,3.13,5.11,5.11,0,0,0,3.89.71l-.17.22c.32-3.55.63-7,.92-10.22l0,.11c-2.19-5-4.74-9.49-7.84-12.78a12.74,12.74,0,0,0-5.38-3.2,37.67,37.67,0,0,0-5.3-1.33c-3.27-.59-5.9-.84-7.7-1a15.49,15.49,0,0,1-2.77-.38s1,.1,2.78.21,4.45.34,7.75.89a39.28,39.28,0,0,1,5.36,1.29,13,13,0,0,1,5.56,3.25c3.19,3.34,5.76,7.84,8,12.89l0,.05v.06c-.29,3.25-.59,6.68-.9,10.23l0,.18-.16,0a5.62,5.62,0,0,1-4.32-.75,9.12,9.12,0,0,1-3-3.32c-1.31-2.31-2.27-4.95-1.77-7.57l.12.3-4.93-2.86.13,0-10.77,0,.17-.08-4.94,5.58.05-.16c.11,7.6-1.36,13.84-3.29,17.76a21.75,21.75,0,0,1-1.43,2.53c-.52.67-.93,1.26-1.33,1.69l-.95.92A1.61,1.61,0,0,1,344.47,362.88Z" style="fill:#ff9a6c"></path><path d="M376.75,315.54c.09.17-2.24,1.15-4.74,2.89-1.24.89-2.33,1.77-3.16,2.35a5.48,5.48,0,0,1-1.4.87c0-.06.41-.49,1.18-1.16s1.81-1.58,3.08-2.49a19.57,19.57,0,0,1,3.48-1.93A4.8,4.8,0,0,1,376.75,315.54Z" style="fill:#ff9a6c"></path><path d="M222.35,359.11a11,11,0,0,1,1.31-1.19c.42-.37,1-.81,1.61-1.28s1.37-1.05,2.23-1.59,1.78-1.17,2.83-1.74,2.18-1.17,3.38-1.77a54.92,54.92,0,0,1,8.19-3.05,56,56,0,0,1,8.59-1.6c1.34-.1,2.61-.22,3.8-.22s2.31,0,3.32,0,1.93.14,2.73.21,1.49.18,2.05.28a13,13,0,0,1,1.73.34,9.81,9.81,0,0,1-1.75-.14c-.56-.07-1.25-.15-2.05-.19s-1.71-.14-2.72-.13-2.11,0-3.29,0-2.45.16-3.77.27A59,59,0,0,0,242,349a59.92,59.92,0,0,0-8.13,3c-1.19.59-2.34,1.12-3.37,1.72s-2,1.13-2.84,1.67-1.59,1.06-2.26,1.51-1.21.86-1.66,1.21A10.55,10.55,0,0,1,222.35,359.11Z" style="fill:#ff9a6c"></path></g></svg>
