<svg width="1440" height="899" viewBox="0 0 1440 899" fill="none" xmlns="http://www.w3.org/2000/svg">
<g filter="url(#filter0_d_82_166)">
<path d="M1441 899.18L1 899.18L0.999931 114.18L1441 236.18L1441 899.18Z" fill="#F2F2F2"/>
</g>
<path fill-rule="evenodd" clip-rule="evenodd" d="M493.538 767.201C477.718 762.221 467.671 758.542 452.75 751.526L420.279 736.022C395.487 814.769 314.961 785.809 322.151 737.198C326.926 704.441 350.995 693.858 354.016 686.309C341.199 682.016 315.671 651.825 306.228 640.094L245.813 552.165C243.38 548.437 242.627 547.556 240.54 543.55C238.533 539.698 236.836 538.134 234.711 534.245C231.222 527.737 228.486 522.11 224.996 515.602C204.523 476.312 197.087 447.567 187.043 404.606C186.04 400.427 185.76 397.634 184.758 393.454L181.477 371.556C178.666 342.85 177.11 333.473 179.413 301.613C180.674 284.107 186.239 266.024 179.124 251.805L174.857 245.31C167.234 235.568 159.281 229.329 149.323 221.686C138.303 213.322 106.46 195.827 93.0342 192.243C88.8959 191.069 84.456 190.444 79.0721 189.136C72.5967 187.612 59.9929 186.735 54.1663 186.833C-21.6167 188.217 -38.4651 277.322 -44.8639 336.1C-47.2928 358.133 -45.0781 395.28 -41.4394 417.677C-34.3661 461.893 -19.9386 511.386 -5.17239 553.257C-2.72472 560.21 -0.56135 566.43 2.23139 573.105C9.03413 589.543 17.2235 605.259 25.2155 620.784C30.0328 630.029 53.358 665.579 59.907 673.823L80.5719 699.005C82.8743 701.92 84.8924 704.101 87.5029 706.855C142.484 764.994 199.771 807.631 281.213 833.272C333.242 849.653 405.303 858.044 459.783 849.051C487.759 844.464 500.124 840.372 525.139 832.92C528.696 831.85 531.753 831.139 535.076 829.995C548.1 825.853 596.832 807.708 603.106 797.19C565.49 785.347 530.882 779.088 493.618 767.355L493.538 767.201Z" fill="#282E41" fill-opacity="0.15"/>
<path fill-rule="evenodd" clip-rule="evenodd" d="M270.974 862.119C234.53 850.645 204.903 835.521 176.538 819.249C157.118 808.112 119.169 780.966 103.07 766.237C72.6852 738.381 72.9998 738.609 43.5854 706.036L18.7151 673.348C10.3433 660.666 7.61581 650.92 -8.00407 641.623C-9.8205 644.528 -31.8188 660.4 -36.6495 664.288C-70.8829 692.021 -86.4881 699.859 -121.592 733.629L-148.274 759.875C-171.19 783.571 -208.286 830.624 -217.768 860.74C-223.487 878.903 -226.145 898.803 -227.932 915.113C-231.118 945.279 -222.543 979.405 -199.515 999.535C-179.917 1016.65 -150.39 1030.46 -122.539 1029.95C-110.109 1029.74 -103.729 1027.89 -93.5316 1026.59L-82.2559 1024.73C-40.66 1019.02 64.821 992.858 110.568 982.146L165.014 968.762C179.913 965.21 193.839 961.48 208.467 957.972C265.551 944.388 325.148 927.732 382.312 914.303L533.97 875.242C539.918 873.122 550.632 870.184 554.08 864.958C542.876 864.135 530.904 866.162 520.442 867.891L471.646 875.197C420.224 883.479 402.577 883.074 350.07 877.62C326.015 875.069 297.383 870.692 271.134 862.427L270.974 862.119Z" fill="#282E41" fill-opacity="0.15"/>
<path fill-rule="evenodd" clip-rule="evenodd" d="M213.333 290.01C213.053 294.172 213.927 299.986 214.196 304.45C216.771 337.589 214.446 365.836 223.864 403.834C227.867 420.164 228.168 426.57 233.504 443.577C249.963 496.028 264.684 528.226 298.18 574.835C301.044 578.828 303.537 581.545 306.402 585.538C326.372 613.335 352.015 634.16 371.513 656.913C405.002 696.179 349.957 699.198 340.143 730.369C336.343 742.439 348.019 755.26 355.354 759.372C361.042 762.58 367.541 763.209 373.676 762.951C384.546 762.381 385.138 762.954 389.133 755.582C392.378 749.777 395.572 743.313 397.916 737.096C401.859 726.616 407.294 707.72 417.649 704.282C436.234 698.027 499.773 733.487 531.998 743.633C555.317 750.975 560.942 752.746 585.652 757.306C608.18 761.436 624.826 760.108 613.723 732.785C605.455 712.408 597.092 702.562 584.363 684.901C564.429 656.987 530.312 626.669 506.705 599.787L440.361 529.055C435.696 524.237 432.4 519.979 427.185 514.86C424.42 512.186 423.778 510.954 421.131 508.317L255.29 331.427C245.286 321.064 221.395 293.45 213.296 290.127L213.333 290.01Z" fill="#282E41" fill-opacity="0.15"/>
<path fill-rule="evenodd" clip-rule="evenodd" d="M925.927 338.965C936.115 348.965 942.384 355.71 951.087 366.92L969.935 391.493C1019.71 340.782 1070.16 394.445 1045.65 428.92C1029.2 452.178 1006.6 450.894 1001.34 455.504C1009.49 463.802 1017.28 496.928 1019.94 509.615L1031.93 600.65C1032.34 604.46 1032.57 605.429 1032.61 609.317C1032.64 613.055 1033.33 614.918 1033.44 618.731C1033.58 625.085 1033.48 630.47 1033.61 636.824C1033.97 674.954 1028.45 699.905 1019.37 736.778C1018.5 740.375 1017.63 742.626 1016.76 746.223L1010.73 764.3C1001.67 787.414 999.202 795.213 984.991 818.75C977.186 831.683 965.855 843.379 965.758 857.063L966.493 863.711C968.535 874.16 972.198 882.052 976.85 891.803C982.034 902.522 999.623 928.379 1008.52 936.371C1011.24 938.888 1014.4 941.101 1018.02 944.208C1022.39 947.906 1031.71 953.501 1036.22 955.703C1094.88 984.241 1142.61 922.482 1170.47 879.901C1180.94 863.952 1193.75 834.596 1199.71 815.997C1211.56 779.323 1219.82 735.728 1224.85 697.847C1225.69 691.558 1226.46 685.943 1226.93 679.733C1228.13 664.468 1227.99 649.216 1227.92 634.187C1227.84 625.215 1223.83 588.839 1222.03 579.958L1216.02 552.572C1215.39 549.438 1214.7 546.977 1213.77 543.845C1194.31 477.779 1167.03 422.702 1114.58 371.225C1081.07 338.339 1029.08 303.757 983.786 289.375C960.538 281.965 949.456 280.274 927.36 276.218C924.214 275.649 921.591 275.001 918.597 274.58C906.989 272.67 862.527 267.552 853.606 273.168C877.83 296.944 901.928 315.262 925.926 338.816L925.927 338.965Z" fill="#282E41" fill-opacity="0.15"/>
<path fill-rule="evenodd" clip-rule="evenodd" d="M1133.7 353.1C1157.17 376.135 1173.98 399.307 1189.38 422.866C1199.93 438.993 1218.43 474.636 1225.02 492.22C1237.45 525.453 1237.3 525.155 1247.13 561.627L1253.44 596.412C1254.91 609.408 1253.19 617.948 1261.54 631.18C1264.07 629.661 1287.14 626.081 1292.36 624.985C1329.45 617.087 1344.48 617.171 1384.59 604.982L1415.31 595.274C1442.14 586.051 1488.97 564.453 1508.01 545.059C1519.49 533.362 1529.3 519.139 1537.04 507.327C1551.27 485.436 1558.02 455.912 1548.22 431.479C1539.88 410.695 1522.62 388.574 1501.06 378.083C1491.45 373.387 1485.83 372.318 1477.5 369.33L1468.13 366.352C1434 354.483 1342.88 333.351 1303.61 323.698L1256.62 312.697C1243.81 309.601 1231.67 307.023 1219.08 304C1169.99 292.121 1117.78 281.617 1068.69 269.588L937.117 240.31C931.727 239.612 922.363 237.681 917.677 240.342C925.949 245.349 935.922 248.471 944.622 251.231L984.9 264.688C1027.57 278.421 1040.95 285.624 1079.09 310.317C1096.54 321.669 1116.79 336.21 1133.7 352.801L1133.7 353.1Z" fill="#282E41" fill-opacity="0.15"/>
<path fill-rule="evenodd" clip-rule="evenodd" d="M954.444 814.399C956.284 811.316 957.884 806.516 959.422 802.988C970.391 776.565 983.207 755.809 990.827 722.987C994.135 708.899 996.406 703.868 998.956 688.74C1006.82 642.084 1008.11 611.64 1000.62 562.809C999.984 558.627 999.133 555.57 998.496 551.388C994.037 522.269 982.504 496.281 976.437 471.214C966.089 428.018 1009.49 447.203 1029.19 427.13C1036.82 419.357 1032.87 404.963 1028.85 398.944C1025.74 394.262 1021 391.241 1016.2 389.042C1007.64 385.234 1007.41 384.563 1001.46 388.657C996.707 391.841 991.732 395.552 987.506 399.405C980.389 405.901 968.84 418.272 959.555 416.863C942.858 414.402 907.977 362.387 887.224 342.019C872.207 327.279 868.585 323.724 851.414 310.575C835.75 298.608 822.464 293.124 820.307 318.417C818.689 337.275 821.257 348.093 824.122 366.61C828.507 395.805 842.831 432.384 850.437 462.222L873.692 542.385C875.389 547.902 876.254 552.455 878.253 558.418C879.33 561.549 879.341 562.745 880.341 565.801L938.442 766.246C942.067 778.101 949.604 808.612 954.518 814.324L954.444 814.399Z" fill="#282E41" fill-opacity="0.15"/>
<defs>
<filter id="filter0_d_82_166" x="-7" y="102.18" width="1456" height="801" filterUnits="userSpaceOnUse" color-interpolation-filters="sRGB">
<feFlood flood-opacity="0" result="BackgroundImageFix"/>
<feColorMatrix in="SourceAlpha" type="matrix" values="0 0 0 0 0 0 0 0 0 0 0 0 0 0 0 0 0 0 127 0" result="hardAlpha"/>
<feOffset dy="-4"/>
<feGaussianBlur stdDeviation="4"/>
<feComposite in2="hardAlpha" operator="out"/>
<feColorMatrix type="matrix" values="0 0 0 0 0 0 0 0 0 0 0 0 0 0 0 0 0 0 0.15 0"/>
<feBlend mode="normal" in2="BackgroundImageFix" result="effect1_dropShadow_82_166"/>
<feBlend mode="normal" in="SourceGraphic" in2="effect1_dropShadow_82_166" result="shape"/>
</filter>
</defs>
</svg>
