<svg xmlns="http://www.w3.org/2000/svg" fill="none" viewBox="-398.45 259.77 754.05 712.67">
<g filter="url(#filter0_d_1_92)">
<path fill-rule="evenodd" clip-rule="evenodd" d="M254.866 367.278C242.84 375.482 234.847 380.412 221.906 386.891L193.581 400.862C234.418 460.724 170.717 500.525 141.101 469.167C121.106 448.085 126.879 425.741 123.314 419.557C113.394 426.064 78.7114 427.271 65.493 427.412L-27.9494 421.321C-31.8413 420.974 -32.8578 421.014 -36.7539 420.278C-40.5001 419.571 -42.5006 419.891 -46.3359 419.244C-52.7187 418.116 -58.0849 416.947 -64.4677 415.818C-102.679 408.599 -126.539 398.116 -161.619 381.711C-165.045 380.133 -167.123 378.809 -170.55 377.23L-187.432 367.6C-208.753 353.95 -216.064 349.93 -236.783 331.039C-248.17 320.662 -257.618 307.005 -271.286 304.19L-278.082 303.604C-288.939 303.57 -297.561 305.666 -308.24 308.382C-319.991 311.439 -349.349 323.895 -359.111 331.208C-362.168 333.424 -365.011 336.146 -368.837 339.148C-373.404 342.786 -380.854 351 -383.951 355.071C-424.152 408.081 -371.858 468.09 -334.801 504.423C-320.927 518.063 -294.109 536.71 -276.688 546.364C-242.357 565.499 -200.393 582.429 -163.501 594.986C-157.377 597.074 -151.913 598.96 -145.793 600.659C-130.764 604.896 -115.479 607.783 -100.433 610.703C-91.4423 612.402 -54.2604 615.624 -45.0188 615.586L-16.4314 615.011C-13.1714 615.006 -10.5715 614.799 -7.25474 614.495C62.6957 608.155 123.208 591.807 185.118 549.573C224.67 522.591 269.591 477.457 292.976 435.005C305.006 413.222 308.899 402.473 317.346 381.177C318.54 378.144 319.71 375.649 320.725 372.737C324.942 361.505 338.895 318.048 335.049 308.009C306.455 327.516 283.344 347.982 255.016 367.306L254.866 367.278Z" fill="#FAFAFA" fill-opacity="0.15"/>
<path fill-rule="evenodd" clip-rule="evenodd" d="M199.45 572.299C171.746 591.198 145.227 603.415 118.602 614.138C100.376 621.48 61.0472 632.907 42.1476 636.01C6.43802 641.834 6.76602 641.741 -31.6699 644.334L-67.7172 643.732C-81.0089 642.618 -89.2106 639.206 -104.104 644.928C-103.087 647.758 -104.089 671.547 -104.031 676.99C-103.499 715.657 -106.569 730.675 -102.347 773.221L-98.7382 805.873C-94.8431 834.545 -82.5431 885.678 -66.9254 908.572C-57.5062 922.379 -45.2281 935.02 -34.9512 945.109C-15.8801 963.689 12.3096 976.309 38.6968 971.361C61.1437 967.144 86.6987 954.279 101.476 934.8C108.083 926.116 110.268 920.709 114.911 912.973L119.753 904.187C138.406 872.404 177.647 785.457 195.104 748.093L215.443 703.281C221.085 691.078 226.076 679.45 231.601 667.457C253.235 620.717 274.115 570.575 295.899 523.864L351.325 398.071C353.094 392.818 356.886 383.835 355.156 378.619C348.504 385.898 343.399 395.255 338.91 403.408L317.448 441.024C295.232 480.981 285.37 492.93 253.094 526.175C238.271 541.377 219.703 558.743 199.749 572.356L199.45 572.299Z" fill="#FAFAFA" fill-opacity="0.15"/>
<path fill-rule="evenodd" clip-rule="evenodd" d="M-226.363 301.348C-223.645 303.801 -219.161 306.356 -215.937 308.594C-191.687 324.816 -173.471 341.76 -142.154 355.902C-128.719 362.009 -124.138 365.28 -109.513 370.837C-64.4061 387.972 -34.209 395.307 16.1224 397.522C20.4314 397.715 23.659 397.471 27.968 397.665C57.9814 398.989 86.2675 392.616 112.546 391.528C157.81 389.759 129.998 429.357 146.163 453.052C152.422 462.227 167.605 461.138 174.424 458.314C179.724 456.134 183.688 451.994 186.842 447.623C192.352 439.818 193.068 439.72 190.155 432.962C187.914 427.572 185.191 421.859 182.177 416.866C177.092 408.456 167.013 394.446 170.266 385.439C176.045 369.226 235.004 344.669 259.501 327.958C277.228 315.865 281.504 312.948 298.068 298.385C313.15 285.093 321.275 272.893 296.403 265.711C277.862 260.346 266.531 260.766 247.44 259.953C217.366 258.539 177.931 265.599 146.574 267.28L61.7689 274.615C55.913 275.216 51.1869 275.177 44.8249 275.992C41.4799 276.447 40.2811 276.22 37.0252 276.614L-175.017 294.908C-187.596 296.179 -219.613 297.657 -226.302 301.437L-226.363 301.348Z" fill="#FAFAFA" fill-opacity="0.15"/>
</g>
<defs>
<filter id="filter0_d_1_92" x="-403.496" y="259.767" width="764.141" height="722.771" filterUnits="userSpaceOnUse" color-interpolation-filters="sRGB">
<feFlood flood-opacity="0" result="BackgroundImageFix"/>
<feColorMatrix in="SourceAlpha" type="matrix" values="0 0 0 0 0 0 0 0 0 0 0 0 0 0 0 0 0 0 127 0" result="hardAlpha"/>
<feOffset dy="5.04829"/>
<feGaussianBlur stdDeviation="2.52414"/>
<feComposite in2="hardAlpha" operator="out"/>
<feColorMatrix type="matrix" values="0 0 0 0 0 0 0 0 0 0 0 0 0 0 0 0 0 0 0.25 0"/>
<feBlend mode="normal" in2="BackgroundImageFix" result="effect1_dropShadow_1_92"/>
<feBlend mode="normal" in="SourceGraphic" in2="effect1_dropShadow_1_92" result="shape"/>
</filter>
</defs>
</svg>