<svg width="117" height="116" viewBox="0 0 117 116" fill="none" xmlns="http://www.w3.org/2000/svg">
<mask id="mask0_3_45" style="mask-type:luminance" maskUnits="userSpaceOnUse" x="0" y="0" width="117" height="116">
<path d="M0.5 0H116.5V116H0.5V0Z" fill="white"/>
</mask>
<g mask="url(#mask0_3_45)">
<path d="M101.135 44.5432C105.598 35.4503 101.977 24.2699 92.9927 19.4564C91.2105 9.41329 81.8064 2.57655 71.7033 3.97919C64.4288 -3.0268 52.6577 -3.12513 45.2956 3.97919C35.3092 2.57269 25.7405 9.42734 24.0008 19.4847C15.0783 24.2139 11.3726 35.3799 15.8619 44.5475C11.4021 53.6406 15.0225 64.8167 24.0057 69.63C25.7451 79.6062 35.253 86.5069 45.3436 85.1273C52.6031 92.1537 64.3647 92.1755 71.7033 85.1074C81.6895 86.5137 91.2581 79.659 92.9979 69.6017C101.914 64.874 105.633 53.7094 101.135 44.5432Z" fill="currentColor"/>
<path d="M88.1939 44.5434C88.1939 28.1435 74.8992 14.849 58.4994 14.849C42.0997 14.849 28.805 28.1435 28.805 44.5434C28.805 60.9432 42.0997 74.2379 58.4994 74.2379C74.8992 74.2379 88.1939 60.9432 88.1939 44.5434Z" stroke="white" stroke-width="6.67969" stroke-miterlimit="10"/>
<path d="M58.5 89.0881L74.0376 116L84.7959 102.877L101.54 100.121L88.2789 77.153" fill="currentColor"/>
<path d="M58.5 89.0881L42.9623 116L32.204 102.877L15.4599 100.121L28.7208 77.153" fill="currentColor"/>
<path d="M44.1122 41.571L55.5561 53.0146L72.8868 35.6837" stroke="white" stroke-width="6.67969" stroke-miterlimit="10"/>
</g>
</svg>
