<svg width="60" height="60" viewBox="0 0 60 60" fill="none" xmlns="http://www.w3.org/2000/svg">
<g filter="url(#filter0_d_183_2405)">
<rect x="14" y="7.10156" width="32" height="32" rx="16" fill="#9747FF"/>
<path d="M33.4695 21.6511L24.8251 15.7051C24.4699 15.4603 24.1004 15.3311 23.7842 15.3311C23.0898 15.3311 22.6294 15.9135 22.6294 16.8507V29.3529C22.6294 29.8108 22.7625 30.1933 22.9599 30.4596C23.1603 30.7295 23.4738 30.8724 23.8125 30.8724C24.1286 30.8724 24.4835 30.7429 24.8385 30.4984L33.4752 24.5524C34.0304 24.1697 34.3348 23.6547 34.3347 23.1015C34.3347 22.5486 34.0255 22.0335 33.4695 21.6511Z" fill="#FAFAFA"/>
<path d="M36.537 15.3291L36.1796 15.3301C35.7117 15.3301 35.3066 15.7115 35.3066 16.1801V30.0153C35.3066 30.4843 35.705 30.8694 36.1736 30.8694L36.5532 30.8742C37.0194 30.8717 37.3706 30.4833 37.3706 30.016V16.1792C37.3706 15.7106 37.0053 15.3291 36.537 15.3291Z" fill="#FAFAFA"/>
<rect x="14.8629" y="7.96451" width="30.2741" height="30.2741" rx="15.1371" stroke="url(#paint0_linear_183_2405)" stroke-width="1.7259"/>
</g>
<defs>
<filter id="filter0_d_183_2405" x="0.192836" y="0.19798" width="59.6143" height="59.6143" filterUnits="userSpaceOnUse" color-interpolation-filters="sRGB">
<feFlood flood-opacity="0" result="BackgroundImageFix"/>
<feColorMatrix in="SourceAlpha" type="matrix" values="0 0 0 0 0 0 0 0 0 0 0 0 0 0 0 0 0 0 127 0" result="hardAlpha"/>
<feOffset dy="6.90358"/>
<feGaussianBlur stdDeviation="6.90358"/>
<feComposite in2="hardAlpha" operator="out"/>
<feColorMatrix type="matrix" values="0 0 0 0 0 0 0 0 0 0 0 0 0 0 0 0 0 0 0.15 0"/>
<feBlend mode="normal" in2="BackgroundImageFix" result="effect1_dropShadow_183_2405"/>
<feBlend mode="normal" in="SourceGraphic" in2="effect1_dropShadow_183_2405" result="shape"/>
</filter>
<linearGradient id="paint0_linear_183_2405" x1="30" y1="7.10156" x2="30" y2="39.1016" gradientUnits="userSpaceOnUse">
<stop stop-color="#9400D3"/>
<stop offset="1" stop-color="#9747FF"/>
</linearGradient>
</defs>
</svg>
