<svg width="171" height="122" viewBox="0 0 171 122" fill="none" xmlns="http://www.w3.org/2000/svg">
<path d="M23.1257 119H17.1187C9.34408 119 3.04175 112.698 3.04175 104.923C3.04175 102.024 5.39173 99.6743 8.29054 99.6743H162.709C165.608 99.6743 167.958 102.024 167.958 104.923C167.958 112.698 161.656 119 153.881 119H34.7455" stroke="currentColor" stroke-width="6" stroke-miterlimit="10" stroke-linecap="round" stroke-linejoin="round"/>
<path d="M156.908 99.6739H14.0925V8.77772C14.0925 5.58657 16.6794 3 19.8702 3H151.13C154.321 3 156.908 5.5869 156.908 8.77772V99.6739Z" stroke="currentColor" stroke-width="6" stroke-miterlimit="10" stroke-linecap="round" stroke-linejoin="round"/>
<path d="M81.5762 78.0172H48.8938C46.7267 78.0172 44.97 76.2605 44.97 74.0934V29.7643C44.97 27.5972 46.7267 25.8405 48.8938 25.8405H73.2288C80.006 25.8405 85.5 31.3345 85.5 38.1117V74.0934C85.5 76.2602 83.7433 78.0172 81.5762 78.0172Z" stroke="currentColor" stroke-width="6" stroke-miterlimit="10" stroke-linecap="round" stroke-linejoin="round"/>
<path d="M126.03 49.5081V74.0933C126.03 76.2604 124.273 78.0171 122.106 78.0171H89.4238C87.2567 78.0171 85.5 76.2604 85.5 74.0933V38.1116C85.5 31.3344 90.994 25.8404 97.7712 25.8404H122.106C124.273 25.8404 126.03 27.5971 126.03 29.7642V37.872" stroke="currentColor" stroke-width="6" stroke-miterlimit="10" stroke-linecap="round" stroke-linejoin="round"/>
<path d="M97.7711 35.2947H116.576" stroke="currentColor" stroke-width="6" stroke-miterlimit="10" stroke-linecap="round" stroke-linejoin="round"/>
<path d="M97.7711 43.6116H116.576" stroke="currentColor" stroke-width="6" stroke-miterlimit="10" stroke-linecap="round" stroke-linejoin="round"/>
<path d="M97.7711 51.9287H116.576" stroke="currentColor" stroke-width="6" stroke-miterlimit="10" stroke-linecap="round" stroke-linejoin="round"/>
<path d="M97.7711 60.246H116.576" stroke="currentColor" stroke-width="6" stroke-miterlimit="10" stroke-linecap="round" stroke-linejoin="round"/>
<path d="M97.7711 68.5627H103.139" stroke="currentColor" stroke-width="6" stroke-miterlimit="10" stroke-linecap="round" stroke-linejoin="round"/>
<path d="M147.616 90.3832L147.616 12.2911L23.3831 12.2911L23.3831 90.3832L147.616 90.3832Z" stroke="currentColor" stroke-width="6" stroke-miterlimit="10" stroke-linecap="round" stroke-linejoin="round"/>
<path d="M103.986 109.481H67.0141C64.5184 109.481 62.4953 107.458 62.4953 104.963V99.674H108.505V104.962C108.505 107.458 106.482 109.481 103.986 109.481Z" stroke="currentColor" stroke-width="6" stroke-miterlimit="10" stroke-linecap="round" stroke-linejoin="round"/>
<path d="M57.3633 61.7471V44.5912C57.3633 43.5124 58.5592 42.863 59.4641 43.4507L72.6723 52.0287C73.4979 52.5649 73.4979 53.7737 72.6723 54.31L59.4641 62.888C58.5592 63.4753 57.3633 62.8259 57.3633 61.7471Z" stroke="currentColor" stroke-width="6" stroke-miterlimit="10" stroke-linecap="round" stroke-linejoin="round"/>
</svg>
