<svg width="24" height="20" viewBox="0 0 24 20" fill="none" xmlns="http://www.w3.org/2000/svg">
<path d="M23.8102 7.26971C23.6807 7.03578 23.4906 6.84094 23.26 6.70554C23.0294 6.57014 22.7667 6.49916 22.4993 6.50001H8.28615C7.80695 6.49999 7.34067 6.6554 6.95731 6.94291C6.57394 7.23043 6.29418 7.63453 6.16 8.09456L3.34675 17.74C3.19864 18.2478 2.88985 18.6938 2.46671 19.0111C2.04357 19.3285 1.52892 19.5 1 19.5H18.8739C19.4029 19.5 19.9177 19.3284 20.3409 19.011C20.7641 18.6936 21.073 18.2475 21.2211 17.7396L23.9218 8.48046C23.9846 8.28136 24.0071 8.07174 23.988 7.86385C23.9688 7.65596 23.9084 7.45397 23.8102 7.26971Z" fill="#FAFAFA"/>
<path d="M2.385 17.46L5.2 7.815C5.39611 7.14822 5.80238 6.56264 6.35828 6.14549C6.91419 5.72834 7.58999 5.50193 8.285 5.5H21V5C21 4.46957 20.7893 3.96086 20.4142 3.58579C20.0391 3.21071 19.5304 3 19 3H11.3778C11.2288 3 11.0817 2.96679 10.9472 2.90279C10.8126 2.83878 10.694 2.74559 10.6 2.63L9.61715 1.42145C9.38301 1.13358 9.08766 0.901503 8.75256 0.742109C8.41747 0.582715 8.05107 0.500007 7.68 0.5H2C1.46957 0.5 0.960859 0.710714 0.585786 1.08579C0.210714 1.46086 0 1.96957 0 2.5L0 17.5C0 17.7652 0.105357 18.0196 0.292893 18.2071C0.48043 18.3946 0.734784 18.5 1 18.5C1.31213 18.4991 1.61562 18.3974 1.86521 18.21C2.1148 18.0226 2.29713 17.7595 2.385 17.46Z" fill="#FAFAFA"/>
</svg>
