<svg width="53" height="53" viewBox="0 0 53 53" fill="none" xmlns="http://www.w3.org/2000/svg">
<path d="M36.6246 27.566C36.6245 27.5661 38.6381 25.5148 38.6381 25.5148C36.8173 35.9549 26.3436 42.7972 16.2925 39.0491C15.3062 38.6976 14.7493 40.1629 15.7321 40.5489C26.5814 44.601 38.0111 37.3743 40.1479 26.1113L41.3173 28.5114C41.783 29.4522 43.2115 28.7517 42.7567 27.8108C42.7567 27.8108 40.4767 23.1304 40.4767 23.1304C40.2796 22.5681 39.5376 22.3133 39.0936 22.7651L35.4814 26.4441C34.7532 27.194 35.8857 28.3097 36.6246 27.566Z" fill="#FAFAFA"/>
<path d="M50.3779 3.85068C50.254 3.55162 49.9619 3.35654 49.6382 3.35654H40.0307C40.0131 2.30514 38.4474 2.30352 38.4295 3.35654V15.3659H35.227C33.4612 15.3659 32.0245 16.8026 32.0245 18.5684V27.0201C31.5515 26.7443 31.0091 26.5747 30.4232 26.5747H22.417C20.6512 26.5747 19.2145 28.011 19.2145 29.7772V33.4251C18.7415 33.1493 18.1991 32.9797 17.6132 32.9797H9.60699C7.84116 32.9797 6.40449 34.416 6.40449 36.1822V44.1884H5.60387C3.83803 44.1884 2.40137 45.6247 2.40137 47.3909C2.40137 49.1571 3.83803 50.5934 5.60387 50.5934H47.2364C51.4542 50.4653 51.4804 44.3256 47.2364 44.1884H46.4357V18.5684C46.4357 16.8026 44.9991 15.3659 43.2332 15.3659H40.0307V12.964H49.6382C49.9619 12.964 50.254 12.769 50.3779 12.4699C50.5018 12.1705 50.4334 11.8264 50.2043 11.5974L46.7673 8.16029L50.2043 4.72323C50.4334 4.49415 50.5018 4.15013 50.3779 3.85068ZM47.2364 45.7897C49.3342 45.8399 49.3589 48.9347 47.2364 48.9922H5.60387C3.50286 48.9407 3.48404 45.8465 5.60392 45.7897C5.60387 45.7897 47.2364 45.7897 47.2364 45.7897ZM43.2332 16.9672C44.1164 16.9672 44.8345 17.6853 44.8345 18.5684V44.1884H33.6257V40.0094C33.6257 39.5668 33.2673 39.2087 32.8251 39.2087C32.383 39.2087 32.0245 39.5668 32.0245 40.0094V44.1884H20.8157V43.1634C20.8157 42.7209 20.4573 42.3628 20.0151 42.3628C19.573 42.3628 19.2145 42.7209 19.2145 43.1634V44.1884H8.00574V36.1822C8.00574 35.2994 8.72388 34.5809 9.60699 34.5809H17.6132C18.4964 34.5809 19.2145 35.2994 19.2145 36.1822V38.3362C19.2343 39.3852 20.7957 39.3923 20.8157 38.3361V29.7772C20.8157 28.8944 21.5339 28.1759 22.417 28.1759H30.4232C31.3064 28.1759 32.0245 28.8944 32.0245 29.7772V33.724C32.0391 34.7735 33.6094 34.778 33.6257 33.724V18.5684C33.6257 17.6853 34.3439 16.9672 35.227 16.9672H43.2332ZM45.069 7.59423C44.7563 7.90697 44.7563 8.41362 45.069 8.72636L47.7055 11.3628H40.0307V4.95779H47.7055L45.069 7.59423Z" fill="#FAFAFA"/>
</svg>
