<svg width="32" height="32" viewBox="0 0 32 32" fill="none" xmlns="http://www.w3.org/2000/svg">
<path fill-rule="evenodd" clip-rule="evenodd" d="M23.8393 15.6842C23.4427 15.6842 23.1872 15.6724 22.7966 15.6196L21.9448 15.4991C21.9448 17.4729 19.9005 17.3907 19.7155 16.2305C19.6259 15.6763 19.8378 15.3069 19.9737 15.0697C20.0295 14.9725 20.0725 14.8976 20.0767 14.8412C19.7537 14.8353 18.9547 14.3301 18.6552 14.1304L16.6461 12.559C16.6277 12.5439 16.6122 12.5314 16.5985 12.5203C16.5507 12.4818 16.5233 12.4597 16.464 12.4004C16.4259 12.3623 16.3942 12.3377 16.3618 12.3125C16.3317 12.2892 16.3011 12.2654 16.2643 12.2301C16.2012 12.1684 16.1439 12.1104 16.0866 12.0524L16.0866 12.0524L16.0866 12.0523C16.0293 11.9943 15.972 11.9363 15.9089 11.8747C15.1599 11.1257 14.784 10.5236 14.2465 9.61599C14.22 9.57193 14.2002 9.53449 14.1804 9.49704C14.1606 9.45959 14.1407 9.42214 14.1143 9.37808L13.8823 8.90226C13.8551 8.8385 13.8296 8.7791 13.8056 8.72307L13.8056 8.723C13.5906 8.22162 13.4915 7.99046 13.333 7.32207C13.308 7.21678 13.2893 7.10857 13.2707 7.00125C13.2172 6.69243 13.165 6.39104 12.9688 6.18832L12.8249 6.07083C12.5811 5.90342 12.3549 5.81824 12.073 5.71544C11.7616 5.60382 10.9099 5.43347 10.578 5.44815C10.5211 5.44978 10.4633 5.4559 10.4007 5.46253L10.4007 5.46253C10.3501 5.46789 10.2963 5.47359 10.2372 5.47753C10.0786 5.48928 9.78492 5.55977 9.65275 5.60382C7.93451 6.17951 8.19004 8.33245 8.46613 9.71879C8.56894 10.2387 8.88615 11.0699 9.12993 11.5545C9.60869 12.512 10.2931 13.5371 10.9304 14.3859L10.9471 14.4082C11.0461 14.5403 11.136 14.6602 11.2418 14.7854C11.5003 15.094 11.7826 15.379 12.0612 15.6602L12.1082 15.7077C12.2844 15.8839 13.0716 16.5271 13.2801 16.6681L13.9322 17.094C14.0056 17.1439 14.0673 17.1792 14.1466 17.2232C15.8179 18.1543 17.4304 18.7153 19.4717 18.7153C20.7758 18.7153 22.4793 18.3893 23.6571 17.7931C24.2059 17.516 24.4647 17.3405 24.8937 17.0495L25.0317 16.956C25.0596 16.937 25.0863 16.9197 25.1123 16.9029L25.1123 16.9028C25.1547 16.8753 25.1955 16.8489 25.2373 16.8179C25.5046 16.6299 26.4856 15.8663 26.5532 15.5814C26.0807 15.5814 25.6355 15.6079 25.1913 15.6344L25.1913 15.6344L25.1912 15.6344C24.7491 15.6608 24.3081 15.6871 23.8422 15.6871L23.8393 15.6842ZM19.4452 19.4466C18.5318 19.4466 17.7475 19.3145 16.9839 19.147C16.4611 19.0325 15.4008 18.6859 14.9279 18.4656C14.0532 18.0571 14.0438 18.0515 13.1934 17.5517L13.1934 17.5517L13.1391 17.5199L12.3373 16.953C12.2726 16.9005 12.2159 16.8493 12.1617 16.8005C11.9794 16.6364 11.8262 16.4983 11.5002 16.4214C11.4857 16.4775 11.2873 16.7542 11.1434 16.9549L11.1433 16.955C11.0839 17.0379 11.0337 17.1078 11.0097 17.1439C10.8099 17.4456 10.6434 17.6779 10.4883 17.8944C10.1918 18.3082 9.93685 18.664 9.57048 19.335L9.15047 20.1251C8.79801 20.83 8.28988 22.1694 8.28988 22.9242C8.28988 23.3795 8.37212 23.8524 8.44849 24.2372C8.59241 24.9479 9.03298 25.6646 9.70266 25.9583C10.2725 26.208 11.0449 26.3108 11.6764 26.0993C11.8711 26.0344 11.9944 25.9723 12.1256 25.9062L12.1256 25.9062C12.1844 25.8766 12.2447 25.8462 12.3138 25.8144L12.5576 25.6911C13.2971 25.3417 14.9061 24.3781 15.9996 23.7233L15.9998 23.7232C16.2483 23.5744 16.4701 23.4415 16.649 23.3354L17.7945 22.6393C17.9564 22.5425 18.1121 22.4464 18.2671 22.3508L18.2673 22.3507C18.4132 22.2606 18.5585 22.171 18.708 22.0813C19.2892 21.734 19.8785 21.3662 20.4685 20.998L20.4685 20.998C21.101 20.6033 21.7343 20.2081 22.3589 19.8373L25.5369 17.8576C25.5541 17.8446 25.5734 17.8306 25.5939 17.8156L25.594 17.8155C25.7174 17.7255 25.8864 17.6021 25.9217 17.4787C25.6648 17.5394 25.4107 17.6681 25.1873 17.7812L25.1756 17.7871L24.1153 18.3041C23.0021 18.8621 22.5968 18.9796 21.3603 19.2322C20.7934 19.3468 20.109 19.4525 19.4511 19.4525L19.4452 19.4466ZM14.0239 6.81691C14.0237 6.8159 14.0234 6.8149 14.0232 6.81391L14.0232 6.81684C14.0234 6.81686 14.0237 6.81689 14.0239 6.81691ZM14.1042 7.03363C14.0729 6.95961 14.0401 6.88187 14.0239 6.81691C14.1846 6.8312 14.6583 7.10347 15.0067 7.30373C15.1126 7.36462 15.2069 7.41884 15.2774 7.45714L20.3293 10.3003C20.3669 10.3198 20.392 10.3354 20.4167 10.3507C20.4441 10.3677 20.4711 10.3845 20.5143 10.4061C20.603 10.4512 20.6754 10.4945 20.7474 10.5374C20.8018 10.5699 20.856 10.6023 20.9167 10.6352L22.9375 11.7718C23.2129 11.9389 23.5258 12.1063 23.8439 12.2765C24.3704 12.5583 24.9112 12.8476 25.3195 13.1552C25.3812 13.2013 25.4395 13.2441 25.4952 13.285C25.8156 13.5205 26.0476 13.691 26.3329 14.0364C26.7822 14.5798 26.4122 14.7296 25.8688 14.7971C25.2725 14.8705 25.1316 14.8705 24.5471 14.8705C24.2685 14.8705 23.8834 14.8286 23.4829 14.785C22.7219 14.7022 21.9051 14.6133 21.6569 14.7942C21.4723 14.9275 21.4578 15.3026 21.4473 15.5735C21.4458 15.613 21.4443 15.6502 21.4425 15.6841C21.4337 15.8428 21.4072 16.0131 21.3749 16.1688C21.3397 16.3504 21.322 16.3569 21.1279 16.4283C21.1117 16.4343 21.0942 16.4408 21.0753 16.4478C20.9373 16.4977 20.7846 16.53 20.6318 16.4977C20.435 16.4566 20.0767 16.2481 20.0767 15.9456C20.0767 15.6515 20.2514 15.4024 20.4136 15.1712C20.6824 14.7879 20.9168 14.4537 20.2647 14.0452C20.0275 13.8974 19.7711 13.763 19.5077 13.625C19.0959 13.4091 18.6669 13.1842 18.2674 12.885C18.2204 12.8498 18.1778 12.8211 18.1352 12.7925C18.0926 12.7639 18.0501 12.7352 18.0031 12.7C16.9046 11.8776 16.3377 11.249 15.5858 10.1711C15.4313 9.94961 15.3535 9.81068 15.2641 9.65118C15.2125 9.55897 15.157 9.45989 15.0806 9.33399C14.7359 8.76928 14.5601 8.27353 14.3818 7.77104C14.3079 7.56265 14.2335 7.3531 14.1466 7.13699C14.1342 7.10468 14.1194 7.06959 14.1042 7.03363Z" fill="#FAFAFA"/>
<circle cx="16" cy="16" r="15.5" stroke="#FAFAFA"/>
</svg>
