<svg width="21" height="21" viewBox="0 0 21 21" fill="none" xmlns="http://www.w3.org/2000/svg">
<path d="M9.19467 1.5199C9.46221 0.696492 10.6271 0.696494 10.8946 1.5199L12.6532 6.93209C12.7728 7.30032 13.116 7.54964 13.5032 7.54964H19.1939C20.0597 7.54964 20.4196 8.65752 19.7192 9.16641L15.1153 12.5113C14.8021 12.7389 14.671 13.1423 14.7906 13.5105L16.5492 18.9227C16.8167 19.7461 15.8743 20.4308 15.1739 19.922L10.57 16.577C10.2567 16.3495 9.83258 16.3495 9.51934 16.577L4.91545 19.922C4.21502 20.4309 3.27261 19.7461 3.54015 18.9227L5.29867 13.5105C5.41832 13.1423 5.28725 12.7389 4.97401 12.5113L0.370122 9.16641C-0.330307 8.65752 0.0296666 7.54964 0.895444 7.54964H6.58616C6.97334 7.54964 7.3165 7.30032 7.43614 6.93209L9.19467 1.5199Z" fill="#FFA722"/>
</svg>
